<?xml version="1.0" encoding="UTF-8" standalone="no"?>
<!-- Generator: Adobe Illustrator 13.0.0, SVG Export Plug-In . SVG Version: 6.00 Build 14948)  -->

<svg
   xmlns:dc="http://purl.org/dc/elements/1.1/"
   xmlns:cc="http://creativecommons.org/ns#"
   xmlns:rdf="http://www.w3.org/1999/02/22-rdf-syntax-ns#"
   xmlns:svg="http://www.w3.org/2000/svg"
   xmlns="http://www.w3.org/2000/svg"
   xmlns:sodipodi="http://sodipodi.sourceforge.net/DTD/sodipodi-0.dtd"
   xmlns:inkscape="http://www.inkscape.org/namespaces/inkscape"
   version="1.1"
   id="Layer_1"
   inkscape:output_extension="org.inkscape.output.svg.inkscape"
   sodipodi:version="0.32"
   sodipodi:docname="york_hackspace_logo.svg"
   inkscape:version="0.48.2 r9819"
   x="0px"
   y="0px"
   width="114px"
   height="114px"
   viewBox="0 0 114 114"
   enable-background="new 0 0 114 114"
   xml:space="preserve"><metadata
   id="metadata122"><rdf:RDF><cc:Work
       rdf:about=""><dc:format>image/svg+xml</dc:format><dc:type
         rdf:resource="http://purl.org/dc/dcmitype/StillImage" /><dc:title></dc:title></cc:Work></rdf:RDF></metadata>


<defs
   id="defs102">
	
	
		<inkscape:perspective
   id="perspective247"
   sodipodi:type="inkscape:persp3d"
   inkscape:vp_x="0 : 57 : 1"
   inkscape:vp_y="0 : 1000 : 0"
   inkscape:vp_z="114 : 57 : 1"
   inkscape:persp3d-origin="57 : 38 : 1">
		</inkscape:perspective>
</defs>
<sodipodi:namedview
   id="base"
   inkscape:window-height="724"
   inkscape:window-width="1362"
   inkscape:pageshadow="2"
   inkscape:pageopacity="0.0"
   guidetolerance="10.0"
   gridtolerance="10.0"
   objecttolerance="10.0"
   borderopacity="1.0"
   bordercolor="#666666"
   pagecolor="#ffffff"
   showgrid="false"
   inkscape:zoom="4.3333333"
   inkscape:cx="62.016721"
   inkscape:cy="58.430769"
   inkscape:window-x="0"
   inkscape:window-y="0"
   inkscape:current-layer="g4189"
   inkscape:window-maximized="1">
	</sodipodi:namedview>


<g
   style="display:inline"
   inkscape:label="cut line"
   id="g4189"
   inkscape:groupmode="layer"><g
     id="g4191"
     transform="matrix(1.0349572,0,0,1.0344054,-1.3704224,-1.9717176)"
     style="fill:#ff00ff"><g
       id="g4193"
       style="fill:#ff00ff">
	<path
   style="fill:#ff00ff"
   inkscape:connector-curvature="0"
   id="path4195"
   d="m 20.537,3.73 c -0.621,9.539 2.478,20.362 9.4,29.89 6.922,9.528 16.249,15.806 25.512,18.164 C 56.072,42.244 52.996,31.428 46.072,21.898 39.148,12.368 29.802,6.086 20.537,3.73 z" />
	<path
   style="fill:#ff00ff"
   inkscape:connector-curvature="0"
   id="path4197"
   d="m 89.987,3.998 c -9.265,2.357 -18.6,8.649 -25.523,18.177 -6.921,9.528 -10.011,20.338 -9.39,29.877 9.265,-2.356 18.602,-8.625 25.525,-18.154 6.923,-9.529 10.009,-20.36 9.388,-29.9 z" />
	<path
   style="fill:#ff00ff"
   inkscape:connector-curvature="0"
   id="path4199"
   d="M 111.819,69.85 C 106.714,61.769 97.845,54.833 86.644,51.193 c -11.2,-3.639 -22.436,-3.236 -31.315,0.302 5.104,8.083 13.949,15.026 25.152,18.667 11.203,3.639 22.457,3.227 31.338,-0.312 z" />
	<path
   style="fill:#ff00ff"
   inkscape:connector-curvature="0"
   id="path4201"
   d="m 55.227,110.967 c 6.108,-7.353 9.964,-17.93 9.964,-29.707 0,-11.777 -3.855,-22.338 -9.964,-29.69 -6.111,7.352 -9.981,17.911 -9.981,29.69 0,11.779 3.87,22.354 9.981,29.707 z" />
	<path
   style="fill:#ff00ff"
   inkscape:connector-curvature="0"
   id="path4203"
   d="M -0.406,70.204 C 8.474,73.741 19.725,74.139 30.927,70.5 42.127,66.86 50.98,59.93 56.085,51.849 47.205,48.309 35.966,47.892 24.764,51.532 13.56,55.171 4.698,62.12 -0.406,70.204 z" />
</g><g
       id="g4205"
       style="fill:#ff00ff">
	<g
   id="g4207"
   style="fill:#ff00ff">
		<g
   id="g4209"
   style="fill:#ff00ff">
			<path
   style="fill:#ff00ff;stroke:#000000;stroke-width:0.125"
   inkscape:connector-curvature="0"
   id="path4211"
   d="M 83.508,88.424 C 101.929,75.04 95.797,65.17 90.799,62.945 85.771,60.708 80.378,59.081 75.166,57.152 56.764,49.765 54.109,52.897 56.057,71.036 c 0.225,5.552 0.094,11.191 0.668,16.665 0.572,5.44 8.852,13.749 26.783,0.723 z" />
			<g
   id="g4213"
   style="fill:#ff00ff">
				<g
   id="g4215"
   style="fill:#ff00ff">
					<path
   inkscape:connector-curvature="0"
   id="path4217"
   d="m 70.126,74.086 c 3.175,0.014 3.036,0.2 3.682,-2.676 0.713,2.271 1.425,4.542 2.138,6.814 -1.94,-1.378 -3.881,-2.758 -5.82,-4.138 z"
   style="fill:#ff00ff" />
					<path
   style="fill:#ff00ff"
   inkscape:connector-curvature="0"
   id="path4219"
   d="m 72.308,70.022 c 0.61,0.839 0.424,2.013 -0.416,2.623 -0.838,0.608 -2.014,0.423 -2.622,-0.416 -0.61,-0.838 -0.715,-3.006 -0.853,-4.368 1.099,0.578 3.282,1.323 3.891,2.161 z" />
				</g>
				<g
   id="g4221"
   style="fill:#ff00ff">
					<path
   inkscape:connector-curvature="0"
   id="path4223"
   d="m 91.735,65.205 c 2.191,2.581 4.234,6.342 -0.363,11.688 -2.167,2.685 -6.614,3.815 -11.098,7.289 -4.688,3.19 -7.14,7.07 -10.362,8.302 -6.506,2.721 -9.451,-0.384 -11.068,-3.043 1.297,2.217 4.241,5.322 10.748,2.602 3.223,-1.232 5.674,-5.11 10.361,-8.302 4.484,-3.473 8.932,-4.605 11.098,-7.289 4.598,-5.348 2.554,-9.107 0.684,-11.247 z"
   style="fill:#ff00ff" />
					<path
   style="fill:#ff00ff"
   inkscape:connector-curvature="0"
   id="path4225"
   d="m 91.129,64.37 c 2.19,2.58 4.234,6.341 -0.364,11.688 -2.167,2.685 -6.614,3.816 -11.097,7.289 -4.69,3.191 -7.141,7.07 -10.363,8.302 -6.506,2.721 -9.45,-0.384 -11.066,-3.044 1.296,2.218 4.041,4.694 10.548,1.973 3.222,-1.23 4.466,-6.297 9.155,-9.488 4.482,-3.473 9.855,-3.213 12.021,-5.897 4.599,-5.348 3.035,-8.684 1.166,-10.823 z" />
				</g>
			</g>
		</g>
		<g
   id="g4227"
   transform="matrix(0.309017,0.951056,-0.951056,0.309017,469.9921,-266.9364)"
   style="fill:#ff00ff">
			<path
   style="fill:#ff00ff;stroke:#000000;stroke-width:0.125"
   inkscape:connector-curvature="0"
   id="path4229"
   d="m 201.606,529.854 c 18.421,-13.384 12.287,-23.254 7.29,-25.479 -5.028,-2.239 -10.421,-3.865 -15.632,-5.794 -18.403,-7.386 -21.057,-4.254 -19.11,13.884 0.224,5.552 0.094,11.191 0.669,16.665 0.572,5.441 8.852,13.752 26.783,0.724 z" />
			<g
   id="g4231"
   style="fill:#ff00ff">
				<g
   id="g4233"
   style="fill:#ff00ff">
					<path
   inkscape:connector-curvature="0"
   id="path4235"
   d="m 188.223,515.515 c 3.175,0.014 3.037,0.201 3.683,-2.675 0.712,2.272 1.426,4.543 2.138,6.815 -1.941,-1.38 -3.881,-2.76 -5.821,-4.14 z"
   style="fill:#ff00ff" />
					<path
   style="fill:#ff00ff"
   inkscape:connector-curvature="0"
   id="path4237"
   d="m 190.405,511.452 c 0.61,0.839 0.423,2.014 -0.415,2.623 -0.84,0.609 -2.015,0.424 -2.624,-0.415 -0.61,-0.839 -0.714,-3.007 -0.853,-4.368 1.099,0.577 3.283,1.321 3.892,2.16 z" />
				</g>
				<g
   id="g4239"
   style="fill:#ff00ff">
					<path
   inkscape:connector-curvature="0"
   id="path4241"
   d="m 209.835,506.635 c 2.189,2.58 4.232,6.34 -0.366,11.688 -2.166,2.684 -6.613,3.817 -11.097,7.289 -4.688,3.191 -7.139,7.071 -10.363,8.302 -6.506,2.721 -9.45,-0.384 -11.067,-3.043 1.297,2.218 4.239,5.323 10.747,2.602 3.222,-1.231 5.673,-5.11 10.362,-8.302 4.484,-3.473 8.93,-4.605 11.099,-7.289 4.598,-5.348 2.553,-9.108 0.685,-11.247 z"
   style="fill:#ff00ff" />
					<path
   style="fill:#ff00ff"
   inkscape:connector-curvature="0"
   id="path4243"
   d="m 209.227,505.8 c 2.189,2.58 4.233,6.341 -0.365,11.688 -2.167,2.684 -6.613,3.816 -11.097,7.289 -4.688,3.191 -7.14,7.07 -10.362,8.302 -6.508,2.72 -9.451,-0.385 -11.069,-3.045 1.297,2.218 4.042,4.695 10.548,1.974 3.222,-1.232 4.467,-6.297 9.156,-9.489 4.483,-3.473 9.856,-3.213 12.023,-5.898 4.599,-5.346 3.035,-8.683 1.166,-10.821 z" />
				</g>
			</g>
		</g>
		<g
   id="g4245"
   transform="matrix(-0.809017,0.587785,-0.587785,-0.809017,865.9057,96.66981)"
   style="fill:#ff00ff">
			<path
   style="fill:#ff00ff;stroke:#000000;stroke-width:0.125"
   inkscape:connector-curvature="0"
   id="path4247"
   d="m 657.186,551.714 c 18.422,-13.385 12.288,-23.254 7.291,-25.48 -5.029,-2.238 -10.421,-3.864 -15.633,-5.792 -18.402,-7.386 -21.057,-4.255 -19.109,13.883 0.224,5.552 0.094,11.192 0.668,16.666 0.572,5.44 8.852,13.75 26.783,0.723 z" />
			<g
   id="g4249"
   style="fill:#ff00ff">
				<g
   id="g4251"
   style="fill:#ff00ff">
					<path
   inkscape:connector-curvature="0"
   id="path4253"
   d="m 643.803,537.375 c 3.176,0.014 3.037,0.201 3.682,-2.675 0.713,2.271 1.425,4.543 2.138,6.814 -1.94,-1.379 -3.879,-2.759 -5.82,-4.139 z"
   style="fill:#ff00ff" />
					<path
   style="fill:#ff00ff"
   inkscape:connector-curvature="0"
   id="path4255"
   d="m 645.986,533.312 c 0.609,0.839 0.423,2.014 -0.416,2.624 -0.838,0.609 -2.014,0.423 -2.623,-0.416 -0.61,-0.839 -0.715,-3.006 -0.853,-4.368 1.1,0.577 3.282,1.321 3.892,2.16 z" />
				</g>
				<g
   id="g4257"
   style="fill:#ff00ff">
					<path
   inkscape:connector-curvature="0"
   id="path4259"
   d="m 665.414,528.496 c 2.189,2.581 4.234,6.34 -0.365,11.687 -2.167,2.685 -6.614,3.816 -11.097,7.289 -4.688,3.191 -7.14,7.071 -10.362,8.302 -6.507,2.721 -9.451,-0.384 -11.067,-3.044 1.295,2.218 4.24,5.324 10.748,2.602 3.222,-1.231 5.672,-5.111 10.361,-8.302 4.484,-3.473 8.931,-4.605 11.098,-7.289 4.597,-5.347 2.553,-9.107 0.684,-11.245 z"
   style="fill:#ff00ff" />
					<path
   style="fill:#ff00ff"
   inkscape:connector-curvature="0"
   id="path4261"
   d="m 664.808,527.66 c 2.189,2.581 4.233,6.34 -0.365,11.688 -2.167,2.684 -6.613,3.816 -11.097,7.289 -4.688,3.192 -7.14,7.07 -10.362,8.302 -6.506,2.721 -9.45,-0.385 -11.068,-3.043 1.297,2.217 4.042,4.694 10.549,1.973 3.222,-1.232 4.467,-6.298 9.156,-9.489 4.483,-3.473 9.855,-3.213 12.022,-5.898 4.597,-5.348 3.034,-8.683 1.165,-10.822 z" />
				</g>
			</g>
		</g>
		<g
   id="g4263"
   transform="matrix(-0.809017,-0.587785,0.587785,-0.809017,643.7921,588.5748)"
   style="fill:#ff00ff">
			<path
   style="fill:#ff00ff;stroke:#000000;stroke-width:0.125"
   inkscape:connector-curvature="0"
   id="path4265"
   d="m 820.265,126.973 c 18.422,-13.384 12.289,-23.254 7.291,-25.48 -5.028,-2.239 -10.421,-3.865 -15.632,-5.793 -18.402,-7.387 -21.056,-4.254 -19.109,13.884 0.224,5.552 0.093,11.192 0.668,16.665 0.573,5.441 8.853,13.751 26.782,0.724 z" />
			<g
   id="g4267"
   style="fill:#ff00ff">
				<g
   id="g4269"
   style="fill:#ff00ff">
					<path
   inkscape:connector-curvature="0"
   id="path4271"
   d="m 806.883,112.635 c 3.176,0.014 3.038,0.201 3.683,-2.676 0.712,2.272 1.425,4.543 2.138,6.815 -1.941,-1.38 -3.881,-2.76 -5.821,-4.139 z"
   style="fill:#ff00ff" />
					<path
   style="fill:#ff00ff"
   inkscape:connector-curvature="0"
   id="path4273"
   d="m 809.066,108.571 c 0.609,0.839 0.424,2.014 -0.415,2.623 -0.838,0.609 -2.014,0.423 -2.623,-0.416 -0.609,-0.839 -0.714,-3.007 -0.852,-4.368 1.098,0.578 3.28,1.323 3.89,2.161 z" />
				</g>
				<g
   id="g4275"
   style="fill:#ff00ff">
					<path
   inkscape:connector-curvature="0"
   id="path4277"
   d="m 828.495,103.755 c 2.189,2.58 4.233,6.34 -0.365,11.687 -2.167,2.685 -6.613,3.817 -11.098,7.289 -4.687,3.191 -7.14,7.072 -10.362,8.302 -6.506,2.721 -9.451,-0.385 -11.068,-3.044 1.296,2.217 4.24,5.323 10.747,2.602 3.222,-1.23 5.674,-5.111 10.362,-8.302 4.484,-3.473 8.931,-4.604 11.098,-7.289 4.598,-5.347 2.555,-9.107 0.686,-11.245 z"
   style="fill:#ff00ff" />
					<path
   style="fill:#ff00ff"
   inkscape:connector-curvature="0"
   id="path4279"
   d="m 827.888,102.919 c 2.19,2.58 4.233,6.341 -0.365,11.688 -2.167,2.684 -6.614,3.816 -11.098,7.289 -4.688,3.191 -7.14,7.071 -10.362,8.302 -6.507,2.721 -9.451,-0.385 -11.068,-3.044 1.296,2.218 4.042,4.694 10.547,1.974 3.223,-1.232 4.468,-6.298 9.156,-9.49 4.484,-3.472 9.856,-3.213 12.022,-5.897 4.6,-5.348 3.037,-8.683 1.168,-10.822 z" />
				</g>
			</g>
		</g>
		<g
   id="g4281"
   transform="matrix(0.309017,-0.951057,0.951057,0.309017,108.7295,528.2566)"
   style="fill:#ff00ff">
			<path
   style="fill:#ff00ff;stroke:#000000;stroke-width:0.125"
   inkscape:connector-curvature="0"
   id="path4283"
   d="m 465.977,-160.399 c 18.421,-13.385 12.288,-23.255 7.29,-25.48 -5.027,-2.238 -10.421,-3.864 -15.632,-5.794 -18.403,-7.387 -21.058,-4.254 -19.109,13.884 0.223,5.553 0.093,11.193 0.669,16.666 0.57,5.441 8.851,13.751 26.782,0.724 z" />
			<g
   id="g4285"
   style="fill:#ff00ff">
				<g
   id="g4287"
   style="fill:#ff00ff">
					<path
   inkscape:connector-curvature="0"
   id="path4289"
   d="m 452.594,-174.737 c 3.175,0.015 3.036,0.2 3.682,-2.676 0.712,2.272 1.425,4.543 2.138,6.815 -1.94,-1.382 -3.88,-2.76 -5.82,-4.139 z"
   style="fill:#ff00ff" />
					<path
   style="fill:#ff00ff"
   inkscape:connector-curvature="0"
   id="path4291"
   d="m 454.776,-178.802 c 0.61,0.84 0.424,2.014 -0.415,2.623 -0.839,0.61 -2.014,0.424 -2.623,-0.415 -0.609,-0.838 -0.714,-3.005 -0.851,-4.368 1.097,0.577 3.28,1.322 3.889,2.16 z" />
				</g>
				<g
   id="g4293"
   style="fill:#ff00ff">
					<path
   inkscape:connector-curvature="0"
   id="path4295"
   d="m 474.205,-183.618 c 2.189,2.581 4.233,6.34 -0.365,11.688 -2.167,2.684 -6.614,3.817 -11.098,7.289 -4.688,3.191 -7.139,7.07 -10.362,8.302 -6.506,2.721 -9.451,-0.384 -11.068,-3.044 1.297,2.218 4.241,5.325 10.747,2.603 3.222,-1.232 5.673,-5.111 10.362,-8.302 4.484,-3.475 8.931,-4.605 11.098,-7.289 4.599,-5.348 2.555,-9.108 0.686,-11.247 z"
   style="fill:#ff00ff" />
					<path
   style="fill:#ff00ff"
   inkscape:connector-curvature="0"
   id="path4297"
   d="m 473.598,-184.452 c 2.19,2.579 4.234,6.34 -0.364,11.688 -2.167,2.684 -6.614,3.815 -11.097,7.289 -4.689,3.191 -7.14,7.07 -10.362,8.302 -6.507,2.721 -9.452,-0.384 -11.068,-3.044 1.296,2.218 4.041,4.694 10.547,1.973 3.222,-1.232 4.467,-6.298 9.155,-9.489 4.484,-3.473 9.856,-3.213 12.023,-5.897 4.598,-5.349 3.035,-8.684 1.166,-10.822 z" />
				</g>
			</g>
		</g>
	</g>
	<g
   id="g4299"
   transform="matrix(0.446511,-0.324409,0.324409,0.446511,171.4232,243.8542)"
   style="fill:#ff00ff">
		<g
   id="g4301"
   style="fill:#ff00ff">
			<path
   style="fill:#ff00ff;stroke:#000000;stroke-width:0.125"
   inkscape:connector-curvature="0"
   id="path4303"
   d="m 65.115,-366.404 c 18.42,-13.384 12.288,-23.253 7.289,-25.479 -5.027,-2.238 -10.42,-3.864 -15.631,-5.792 -18.402,-7.387 -21.058,-4.256 -19.11,13.883 0.224,5.552 0.094,11.192 0.669,16.666 0.572,5.44 8.852,13.749 26.783,0.722 z" />
			<g
   id="g4305"
   style="fill:#ff00ff">
				<g
   id="g4307"
   style="fill:#ff00ff">
					<path
   inkscape:connector-curvature="0"
   id="path4309"
   d="m 51.732,-380.742 c 3.176,0.015 3.036,0.201 3.683,-2.674 0.712,2.271 1.422,4.542 2.138,6.813 -1.939,-1.379 -3.882,-2.759 -5.821,-4.139 z"
   style="fill:#ff00ff" />
					<path
   style="fill:#ff00ff"
   inkscape:connector-curvature="0"
   id="path4311"
   d="m 53.913,-384.806 c 0.61,0.84 0.425,2.016 -0.413,2.625 -0.84,0.608 -2.013,0.423 -2.624,-0.416 -0.611,-0.839 -0.714,-3.006 -0.851,-4.368 1.096,0.576 3.281,1.321 3.888,2.159 z" />
				</g>
				<g
   id="g4313"
   style="fill:#ff00ff">
					<path
   inkscape:connector-curvature="0"
   id="path4315"
   d="m 73.344,-389.621 c 2.188,2.579 4.233,6.341 -0.366,11.687 -2.167,2.685 -6.614,3.817 -11.098,7.288 -4.688,3.192 -7.139,7.072 -10.362,8.304 -6.507,2.719 -9.45,-0.386 -11.067,-3.043 1.296,2.217 4.241,5.321 10.747,2.601 3.223,-1.23 5.673,-5.11 10.362,-8.302 4.481,-3.474 8.93,-4.605 11.097,-7.29 4.597,-5.347 2.555,-9.105 0.687,-11.245 z"
   style="fill:#ff00ff" />
					<path
   style="fill:#ff00ff"
   inkscape:connector-curvature="0"
   id="path4317"
   d="m 72.737,-390.456 c 2.19,2.579 4.231,6.337 -0.364,11.687 -2.169,2.684 -6.615,3.816 -11.099,7.29 -4.688,3.19 -7.138,7.07 -10.361,8.3 -6.507,2.722 -9.453,-0.385 -11.067,-3.046 1.296,2.219 4.04,4.696 10.546,1.975 3.224,-1.231 4.467,-6.299 9.157,-9.49 4.483,-3.473 9.856,-3.213 12.022,-5.896 4.596,-5.346 3.035,-8.682 1.166,-10.82 z" />
				</g>
			</g>
		</g>
		<g
   id="g4319"
   transform="matrix(0.309017,0.951056,-0.951056,0.309017,469.9921,-266.9364)"
   style="fill:#ff00ff">
			<path
   style="fill:#ff00ff;stroke:#000000;stroke-width:0.125"
   inkscape:connector-curvature="0"
   id="path4321"
   d="m -236.645,406.798 c 18.42,-13.383 12.287,-23.252 7.292,-25.479 -5.029,-2.241 -10.422,-3.866 -15.635,-5.794 -18.403,-7.386 -21.057,-4.254 -19.109,13.883 0.224,5.552 0.093,11.191 0.67,16.666 0.572,5.441 8.852,13.751 26.782,0.724 z" />
			<g
   id="g4323"
   style="fill:#ff00ff">
				<g
   id="g4325"
   style="fill:#ff00ff">
					<path
   inkscape:connector-curvature="0"
   id="path4327"
   d="m -250.028,392.459 c 3.176,0.015 3.037,0.201 3.683,-2.676 0.712,2.274 1.424,4.543 2.136,6.818 -1.94,-1.383 -3.878,-2.761 -5.819,-4.142 z"
   style="fill:#ff00ff" />
					<path
   style="fill:#ff00ff"
   inkscape:connector-curvature="0"
   id="path4329"
   d="m -247.844,388.397 c 0.608,0.837 0.422,2.014 -0.418,2.624 -0.836,0.607 -2.012,0.421 -2.621,-0.416 -0.61,-0.84 -0.716,-3.008 -0.855,-4.368 1.101,0.576 3.283,1.319 3.894,2.16 z" />
				</g>
				<g
   id="g4331"
   style="fill:#ff00ff">
					<path
   inkscape:connector-curvature="0"
   id="path4333"
   d="m -228.416,383.581 c 2.189,2.58 4.234,6.339 -0.365,11.686 -2.166,2.685 -6.615,3.815 -11.1,7.29 -4.687,3.188 -7.137,7.071 -10.359,8.301 -6.506,2.722 -9.451,-0.384 -11.067,-3.044 1.295,2.217 4.24,5.324 10.746,2.601 3.222,-1.23 5.675,-5.109 10.359,-8.301 4.487,-3.472 8.934,-4.606 11.1,-7.29 4.6,-5.345 2.554,-9.105 0.686,-11.243 z"
   style="fill:#ff00ff" />
					<path
   style="fill:#ff00ff"
   inkscape:connector-curvature="0"
   id="path4335"
   d="m -229.024,382.743 c 2.189,2.58 4.234,6.339 -0.363,11.689 -2.167,2.683 -6.614,3.817 -11.101,7.289 -4.684,3.191 -7.137,7.071 -10.358,8.302 -6.508,2.719 -9.453,-0.387 -11.068,-3.045 1.296,2.219 4.041,4.695 10.547,1.973 3.222,-1.23 4.467,-6.296 9.155,-9.488 4.485,-3.473 9.856,-3.213 12.023,-5.899 4.598,-5.345 3.035,-8.68 1.165,-10.821 z" />
				</g>
			</g>
		</g>
		<g
   id="g4337"
   transform="matrix(-0.809017,0.587785,-0.587785,-0.809017,865.9057,96.66981)"
   style="fill:#ff00ff">
			<path
   style="fill:#ff00ff;stroke:#000000;stroke-width:0.125"
   inkscape:connector-curvature="0"
   id="path4339"
   d="m 404.726,930.489 c 18.42,-13.384 12.29,-23.254 7.291,-25.48 -5.029,-2.239 -10.422,-3.864 -15.635,-5.792 -18.403,-7.389 -21.055,-4.254 -19.109,13.883 0.225,5.552 0.094,11.192 0.67,16.665 0.573,5.441 8.852,13.751 26.783,0.724 z" />
			<g
   id="g4341"
   style="fill:#ff00ff">
				<g
   id="g4343"
   style="fill:#ff00ff">
					<path
   inkscape:connector-curvature="0"
   id="path4345"
   d="m 391.344,916.149 c 3.176,0.015 3.038,0.202 3.681,-2.674 0.714,2.271 1.427,4.542 2.139,6.814 -1.941,-1.38 -3.88,-2.76 -5.82,-4.14 z"
   style="fill:#ff00ff" />
					<path
   style="fill:#ff00ff"
   inkscape:connector-curvature="0"
   id="path4347"
   d="m 393.525,912.086 c 0.61,0.839 0.424,2.014 -0.416,2.625 -0.837,0.609 -2.014,0.422 -2.622,-0.416 -0.61,-0.84 -0.716,-3.006 -0.853,-4.368 1.099,0.577 3.281,1.321 3.891,2.159 z" />
				</g>
				<g
   id="g4349"
   style="fill:#ff00ff">
					<path
   inkscape:connector-curvature="0"
   id="path4351"
   d="m 412.954,907.269 c 2.191,2.58 4.235,6.341 -0.366,11.688 -2.166,2.684 -6.613,3.817 -11.096,7.289 -4.688,3.192 -7.14,7.073 -10.362,8.302 -6.506,2.721 -9.451,-0.384 -11.068,-3.044 1.296,2.218 4.24,5.324 10.747,2.603 3.222,-1.231 5.673,-5.11 10.363,-8.303 4.483,-3.471 8.93,-4.604 11.096,-7.287 4.602,-5.348 2.556,-9.107 0.686,-11.248 z"
   style="fill:#ff00ff" />
					<path
   style="fill:#ff00ff"
   inkscape:connector-curvature="0"
   id="path4353"
   d="m 412.348,906.434 c 2.189,2.581 4.233,6.34 -0.366,11.688 -2.168,2.685 -6.613,3.817 -11.097,7.289 -4.688,3.191 -7.139,7.069 -10.362,8.301 -6.507,2.723 -9.451,-0.385 -11.067,-3.044 1.296,2.218 4.041,4.695 10.548,1.973 3.222,-1.229 4.466,-6.297 9.156,-9.487 4.483,-3.473 9.854,-3.214 12.022,-5.897 4.599,-5.348 3.035,-8.685 1.166,-10.823 z" />
				</g>
			</g>
		</g>
		<g
   id="g4355"
   transform="matrix(-0.809017,-0.587785,0.587785,-0.809017,643.7921,588.5748)"
   style="fill:#ff00ff">
			<path
   style="fill:#ff00ff;stroke:#000000;stroke-width:0.125"
   inkscape:connector-curvature="0"
   id="path4357"
   d="m 1102.488,484.125 c 18.421,-13.385 12.288,-23.255 7.29,-25.479 -5.028,-2.238 -10.42,-3.864 -15.632,-5.794 -18.404,-7.387 -21.055,-4.254 -19.109,13.884 0.223,5.553 0.092,11.192 0.669,16.666 0.57,5.44 8.85,13.75 26.782,0.723 z" />
			<g
   id="g4359"
   style="fill:#ff00ff">
				<g
   id="g4361"
   style="fill:#ff00ff">
					<path
   inkscape:connector-curvature="0"
   id="path4363"
   d="m 1089.105,469.786 c 3.175,0.014 3.037,0.201 3.683,-2.675 0.712,2.271 1.424,4.542 2.137,6.815 -1.94,-1.38 -3.88,-2.761 -5.82,-4.14 z"
   style="fill:#ff00ff" />
					<path
   style="fill:#ff00ff"
   inkscape:connector-curvature="0"
   id="path4365"
   d="m 1091.287,465.723 c 0.61,0.839 0.423,2.014 -0.415,2.624 -0.839,0.608 -2.014,0.422 -2.624,-0.417 -0.61,-0.838 -0.714,-3.006 -0.852,-4.367 1.1,0.576 3.283,1.321 3.891,2.16 z" />
				</g>
				<g
   id="g4367"
   style="fill:#ff00ff">
					<path
   inkscape:connector-curvature="0"
   id="path4369"
   d="m 1110.715,460.907 c 2.191,2.58 4.234,6.34 -0.365,11.687 -2.167,2.684 -6.612,3.817 -11.097,7.29 -4.689,3.19 -7.14,7.071 -10.362,8.301 -6.506,2.721 -9.452,-0.385 -11.068,-3.043 1.297,2.218 4.241,5.323 10.748,2.602 3.22,-1.232 5.673,-5.111 10.362,-8.301 4.483,-3.473 8.93,-4.605 11.096,-7.29 4.6,-5.348 2.556,-9.108 0.686,-11.246 z"
   style="fill:#ff00ff" />
					<path
   style="fill:#ff00ff"
   inkscape:connector-curvature="0"
   id="path4371"
   d="m 1110.109,460.071 c 2.19,2.58 4.233,6.34 -0.365,11.688 -2.167,2.683 -6.613,3.816 -11.098,7.289 -4.689,3.19 -7.139,7.07 -10.361,8.3 -6.507,2.722 -9.451,-0.384 -11.068,-3.042 1.295,2.217 4.041,4.694 10.547,1.973 3.224,-1.232 4.468,-6.298 9.156,-9.489 4.484,-3.472 9.856,-3.213 12.022,-5.897 4.599,-5.348 3.037,-8.683 1.167,-10.822 z" />
				</g>
			</g>
		</g>
		<g
   id="g4373"
   transform="matrix(0.309017,-0.951057,0.951057,0.309017,108.7295,528.2566)"
   style="fill:#ff00ff">
			<path
   style="fill:#ff00ff;stroke:#000000;stroke-width:0.125"
   inkscape:connector-curvature="0"
   id="path4375"
   d="m 892.858,-318.443 c 18.421,-13.384 12.288,-23.256 7.291,-25.478 -5.027,-2.24 -10.421,-3.866 -15.633,-5.794 -18.402,-7.386 -21.056,-4.256 -19.109,13.884 0.223,5.554 0.093,11.191 0.667,16.667 0.572,5.44 8.854,13.747 26.784,0.721 z" />
			<g
   id="g4377"
   style="fill:#ff00ff">
				<g
   id="g4379"
   style="fill:#ff00ff">
					<path
   inkscape:connector-curvature="0"
   id="path4381"
   d="m 879.476,-332.782 c 3.176,0.016 3.037,0.204 3.682,-2.674 0.713,2.271 1.425,4.543 2.137,6.815 -1.939,-1.38 -3.879,-2.76 -5.819,-4.141 z"
   style="fill:#ff00ff" />
					<path
   style="fill:#ff00ff"
   inkscape:connector-curvature="0"
   id="path4383"
   d="m 881.658,-336.843 c 0.61,0.838 0.423,2.015 -0.415,2.622 -0.839,0.609 -2.015,0.424 -2.624,-0.413 -0.609,-0.84 -0.714,-3.008 -0.852,-4.37 1.099,0.579 3.281,1.323 3.891,2.161 z" />
				</g>
				<g
   id="g4385"
   style="fill:#ff00ff">
					<path
   inkscape:connector-curvature="0"
   id="path4387"
   d="m 901.087,-341.659 c 2.19,2.579 4.234,6.339 -0.364,11.686 -2.168,2.685 -6.615,3.815 -11.099,7.29 -4.689,3.191 -7.138,7.068 -10.361,8.3 -6.506,2.721 -9.451,-0.384 -11.067,-3.043 1.295,2.218 4.24,5.323 10.747,2.603 3.222,-1.232 5.673,-5.111 10.362,-8.302 4.483,-3.472 8.93,-4.607 11.097,-7.289 4.598,-5.347 2.553,-9.107 0.685,-11.245 z"
   style="fill:#ff00ff" />
					<path
   style="fill:#ff00ff"
   inkscape:connector-curvature="0"
   id="path4389"
   d="m 900.48,-342.496 c 2.189,2.583 4.234,6.339 -0.366,11.69 -2.167,2.684 -6.613,3.814 -11.098,7.289 -4.689,3.191 -7.139,7.07 -10.361,8.298 -6.508,2.725 -9.451,-0.383 -11.068,-3.042 1.297,2.217 4.041,4.695 10.547,1.974 3.223,-1.232 4.468,-6.299 9.156,-9.49 4.484,-3.473 9.856,-3.214 12.022,-5.897 4.6,-5.348 3.037,-8.682 1.168,-10.822 z" />
				</g>
			</g>
		</g>
	</g>
</g><g
       id="g4391"
       style="fill:#ff00ff">
	<ellipse
   style="fill:#ff00ff"
   sodipodi:ry="26.830999"
   sodipodi:rx="25.697001"
   sodipodi:cy="51.192001"
   sodipodi:cx="57.019001"
   cx="57.019001"
   cy="51.192001"
   rx="25.697001"
   ry="26.830999"
   id="ellipse4393"
   d="m 82.716002,51.192001 c 0,14.818352 -11.504939,26.831 -25.697001,26.831 -14.192061,0 -25.697,-12.012648 -25.697,-26.831 0,-14.818351 11.504939,-26.830999 25.697,-26.830999 14.192062,0 25.697001,12.012648 25.697001,26.830999 z" />
	<ellipse
   style="fill:#ff00ff"
   sodipodi:ry="8.0979996"
   sodipodi:rx="7.8979998"
   sodipodi:cy="42.126999"
   sodipodi:cx="28.775999"
   cx="28.775999"
   cy="42.126999"
   rx="7.8979998"
   ry="8.0979996"
   id="ellipse4395"
   d="m 36.673999,42.126999 c 0,4.472402 -3.536055,8.097999 -7.898,8.097999 -4.361945,0 -7.898,-3.625597 -7.898,-8.097999 0,-4.472402 3.536055,-8.098 7.898,-8.098 4.361945,0 7.898,3.625598 7.898,8.098 z" />
	<ellipse
   style="fill:#ff00ff"
   sodipodi:ry="7.493"
   sodipodi:rx="8.842"
   sodipodi:cy="21.459999"
   sodipodi:cx="55.014999"
   cx="55.014999"
   cy="21.459999"
   rx="8.842"
   ry="7.493"
   id="ellipse4397"
   d="m 63.856999,21.459999 c 0,4.13827 -3.958698,7.493 -8.842,7.493 -4.883301,0 -8.842,-3.35473 -8.842,-7.493 0,-4.13827 3.958699,-7.493 8.842,-7.493 4.883302,0 8.842,3.35473 8.842,7.493 z" />
	<ellipse
   style="fill:#ff00ff"
   sodipodi:ry="5.5599999"
   sodipodi:rx="8.2510004"
   sodipodi:cy="40.797001"
   sodipodi:cx="83.660004"
   cx="83.660004"
   cy="40.797001"
   rx="8.2510004"
   ry="5.5599999"
   id="ellipse4399"
   d="m 91.911004,40.797001 c 0,3.070703 -3.694099,5.56 -8.251,5.56 -4.556902,0 -8.251001,-2.489297 -8.251001,-5.56 0,-3.070703 3.694099,-5.56 8.251001,-5.56 4.556901,0 8.251,2.489297 8.251,5.56 z" />
	<ellipse
   style="fill:#ff00ff"
   sodipodi:ry="6.164"
   sodipodi:rx="6.2480001"
   sodipodi:cy="75.484001"
   sodipodi:cx="74.111"
   cx="74.111"
   cy="75.484001"
   rx="6.2480001"
   ry="6.164"
   id="ellipse4401"
   d="m 80.359,75.484001 c 0,3.404283 -2.797325,6.164 -6.248,6.164 -3.450675,0 -6.248,-2.759717 -6.248,-6.164 0,-3.404283 2.797325,-6.164 6.248,-6.164 3.450675,0 6.248,2.759717 6.248,6.164 z" />
	<ellipse
   style="fill:#ff00ff"
   sodipodi:ry="7.2509999"
   sodipodi:rx="7.5440001"
   sodipodi:cy="75.121002"
   sodipodi:cx="40.043999"
   cx="40.043999"
   cy="75.121002"
   rx="7.5440001"
   ry="7.2509999"
   id="ellipse4403"
   d="m 47.587999,75.121002 c 0,4.004617 -3.377564,7.251 -7.544,7.251 -4.166437,0 -7.544,-3.246383 -7.544,-7.251 0,-4.004616 3.377563,-7.251 7.544,-7.251 4.166436,0 7.544,3.246384 7.544,7.251 z" />
</g><g
       id="g4405"
       transform="matrix(1.0229817,0,0,1.0517246,-0.57548269,-2.7157821)"
       style="fill:#ff00ff">
	<path
   inkscape:connector-curvature="0"
   id="path4407"
   d="M 55.164,90.671 42.742,78.248 44.861,76.13 30.051,61.318 27.932,63.438 15.511,51.018 34.132,32.396 46.554,44.817 42.509,48.863 45.051,51.405 55.553,40.902 53.012,38.36 49.105,42.267 36.682,29.846 55.164,11.364 67.586,23.786 65.468,25.905 80.276,40.715 82.396,38.596 94.819,51.018 76.337,69.5 63.914,57.077 67.82,53.171 65.754,51.103 55.251,61.607 57.316,63.673 61.361,59.627 73.786,72.05 55.164,90.671 z"
   style="fill:#ff00ff;stroke:#6b2910" />
</g></g></g><g
   inkscape:groupmode="layer"
   id="layer2"
   inkscape:label="Base"
   style="display:inline"><g
     id="g3969"
     transform="matrix(0.99794369,0,0,1,0.69147069,-1.2583301e-5)"><g
       id="g1991">
	<path
   d="m 20.537,3.73 c -0.621,9.539 2.478,20.362 9.4,29.89 6.922,9.528 16.249,15.806 25.512,18.164 C 56.072,42.244 52.996,31.428 46.072,21.898 39.148,12.368 29.802,6.086 20.537,3.73 z"
   id="path1986"
   inkscape:connector-curvature="0"
   style="fill:#3b8536" />
	<path
   d="m 89.987,3.998 c -9.265,2.357 -18.6,8.649 -25.523,18.177 -6.921,9.528 -10.011,20.338 -9.39,29.877 9.265,-2.356 18.602,-8.625 25.525,-18.154 6.923,-9.529 10.009,-20.36 9.388,-29.9 z"
   id="path1987"
   inkscape:connector-curvature="0"
   style="fill:#3b8536" />
	<path
   d="M 111.819,69.85 C 106.714,61.769 97.845,54.833 86.644,51.193 c -11.2,-3.639 -22.436,-3.236 -31.315,0.302 5.104,8.083 13.949,15.026 25.152,18.667 11.203,3.639 22.457,3.227 31.338,-0.312 z"
   id="path1988"
   inkscape:connector-curvature="0"
   style="fill:#3b8536" />
	<path
   d="m 55.227,110.967 c 6.108,-7.353 9.964,-17.93 9.964,-29.707 0,-11.777 -3.855,-22.338 -9.964,-29.69 -6.111,7.352 -9.981,17.911 -9.981,29.69 0,11.779 3.87,22.354 9.981,29.707 z"
   id="path1989"
   inkscape:connector-curvature="0"
   style="fill:#3b8536" />
	<path
   d="M -0.406,70.204 C 8.474,73.741 19.725,74.139 30.927,70.5 42.127,66.86 50.98,59.93 56.085,51.849 47.205,48.309 35.966,47.892 24.764,51.532 13.56,55.171 4.698,62.12 -0.406,70.204 z"
   id="path1990"
   inkscape:connector-curvature="0"
   style="fill:#3b8536" />
</g><g
       id="g1681">
	<g
   id="g1463">
		<g
   id="g1418">
			<path
   d="M 83.508,88.424 C 101.929,75.04 95.797,65.17 90.799,62.945 85.771,60.708 80.378,59.081 75.166,57.152 56.764,49.765 54.109,52.897 56.057,71.036 c 0.225,5.552 0.094,11.191 0.668,16.665 0.572,5.44 8.852,13.749 26.783,0.723 z"
   id="path1270"
   inkscape:connector-curvature="0"
   style="fill:#ffffff;stroke:#000000;stroke-width:0.125" />
			<g
   id="g1411">
				<g
   id="g1408">
					<path
   d="m 70.126,74.086 c 3.175,0.014 3.036,0.2 3.682,-2.676 0.713,2.271 1.425,4.542 2.138,6.814 -1.94,-1.378 -3.881,-2.758 -5.82,-4.138 z"
   id="path1378"
   inkscape:connector-curvature="0" />
					<path
   d="m 72.308,70.022 c 0.61,0.839 0.424,2.013 -0.416,2.623 -0.838,0.608 -2.014,0.423 -2.622,-0.416 -0.61,-0.838 -0.715,-3.006 -0.853,-4.368 1.099,0.578 3.282,1.323 3.891,2.161 z"
   id="path1380"
   inkscape:connector-curvature="0"
   style="fill:#3c4919" />
				</g>
				<g
   id="g1403">
					<path
   d="m 91.735,65.205 c 2.191,2.581 4.234,6.342 -0.363,11.688 -2.167,2.685 -6.614,3.815 -11.098,7.289 -4.688,3.19 -7.14,7.07 -10.362,8.302 -6.506,2.721 -9.451,-0.384 -11.068,-3.043 1.297,2.217 4.241,5.322 10.748,2.602 3.223,-1.232 5.674,-5.11 10.361,-8.302 4.484,-3.473 8.932,-4.605 11.098,-7.289 4.598,-5.348 2.554,-9.107 0.684,-11.247 z"
   id="path1398"
   inkscape:connector-curvature="0" />
					<path
   d="m 91.129,64.37 c 2.19,2.58 4.234,6.341 -0.364,11.688 -2.167,2.685 -6.614,3.816 -11.097,7.289 -4.69,3.191 -7.141,7.07 -10.363,8.302 -6.506,2.721 -9.45,-0.384 -11.066,-3.044 1.296,2.218 4.041,4.694 10.548,1.973 3.222,-1.23 4.466,-6.297 9.155,-9.488 4.482,-3.473 9.855,-3.213 12.021,-5.897 4.599,-5.348 3.035,-8.684 1.166,-10.823 z"
   id="path1402"
   inkscape:connector-curvature="0"
   style="fill:#3a6673" />
				</g>
			</g>
		</g>
		<g
   transform="matrix(0.309017,0.951056,-0.951056,0.309017,469.9921,-266.9364)"
   id="g1427">
			<path
   d="m 201.606,529.854 c 18.421,-13.384 12.287,-23.254 7.29,-25.479 -5.028,-2.239 -10.421,-3.865 -15.632,-5.794 -18.403,-7.386 -21.057,-4.254 -19.11,13.884 0.224,5.552 0.094,11.191 0.669,16.665 0.572,5.441 8.852,13.752 26.783,0.724 z"
   id="path1428"
   inkscape:connector-curvature="0"
   style="fill:#ffffff;stroke:#000000;stroke-width:0.125" />
			<g
   id="g1429">
				<g
   id="g1430">
					<path
   d="m 188.223,515.515 c 3.175,0.014 3.037,0.201 3.683,-2.675 0.712,2.272 1.426,4.543 2.138,6.815 -1.941,-1.38 -3.881,-2.76 -5.821,-4.14 z"
   id="path1431"
   inkscape:connector-curvature="0" />
					<path
   d="m 190.405,511.452 c 0.61,0.839 0.423,2.014 -0.415,2.623 -0.84,0.609 -2.015,0.424 -2.624,-0.415 -0.61,-0.839 -0.714,-3.007 -0.853,-4.368 1.099,0.577 3.283,1.321 3.892,2.16 z"
   id="path1432"
   inkscape:connector-curvature="0"
   style="fill:#3c4919" />
				</g>
				<g
   id="g1433">
					<path
   d="m 209.835,506.635 c 2.189,2.58 4.232,6.34 -0.366,11.688 -2.166,2.684 -6.613,3.817 -11.097,7.289 -4.688,3.191 -7.139,7.071 -10.363,8.302 -6.506,2.721 -9.45,-0.384 -11.067,-3.043 1.297,2.218 4.239,5.323 10.747,2.602 3.222,-1.231 5.673,-5.11 10.362,-8.302 4.484,-3.473 8.93,-4.605 11.099,-7.289 4.598,-5.348 2.553,-9.108 0.685,-11.247 z"
   id="path1434"
   inkscape:connector-curvature="0" />
					<path
   d="m 209.227,505.8 c 2.189,2.58 4.233,6.341 -0.365,11.688 -2.167,2.684 -6.613,3.816 -11.097,7.289 -4.688,3.191 -7.14,7.07 -10.362,8.302 -6.508,2.72 -9.451,-0.385 -11.069,-3.045 1.297,2.218 4.042,4.695 10.548,1.974 3.222,-1.232 4.467,-6.297 9.156,-9.489 4.483,-3.473 9.856,-3.213 12.023,-5.898 4.599,-5.346 3.035,-8.683 1.166,-10.821 z"
   id="path1435"
   inkscape:connector-curvature="0"
   style="fill:#3a6673" />
				</g>
			</g>
		</g>
		<g
   transform="matrix(-0.809017,0.587785,-0.587785,-0.809017,865.9057,96.66981)"
   id="g1436">
			<path
   d="m 657.186,551.714 c 18.422,-13.385 12.288,-23.254 7.291,-25.48 -5.029,-2.238 -10.421,-3.864 -15.633,-5.792 -18.402,-7.386 -21.057,-4.255 -19.109,13.883 0.224,5.552 0.094,11.192 0.668,16.666 0.572,5.44 8.852,13.75 26.783,0.723 z"
   id="path1437"
   inkscape:connector-curvature="0"
   style="fill:#ffffff;stroke:#000000;stroke-width:0.125" />
			<g
   id="g1438">
				<g
   id="g1439">
					<path
   d="m 643.803,537.375 c 3.176,0.014 3.037,0.201 3.682,-2.675 0.713,2.271 1.425,4.543 2.138,6.814 -1.94,-1.379 -3.879,-2.759 -5.82,-4.139 z"
   id="path1440"
   inkscape:connector-curvature="0" />
					<path
   d="m 645.986,533.312 c 0.609,0.839 0.423,2.014 -0.416,2.624 -0.838,0.609 -2.014,0.423 -2.623,-0.416 -0.61,-0.839 -0.715,-3.006 -0.853,-4.368 1.1,0.577 3.282,1.321 3.892,2.16 z"
   id="path1441"
   inkscape:connector-curvature="0"
   style="fill:#3c4919" />
				</g>
				<g
   id="g1442">
					<path
   d="m 665.414,528.496 c 2.189,2.581 4.234,6.34 -0.365,11.687 -2.167,2.685 -6.614,3.816 -11.097,7.289 -4.688,3.191 -7.14,7.071 -10.362,8.302 -6.507,2.721 -9.451,-0.384 -11.067,-3.044 1.295,2.218 4.24,5.324 10.748,2.602 3.222,-1.231 5.672,-5.111 10.361,-8.302 4.484,-3.473 8.931,-4.605 11.098,-7.289 4.597,-5.347 2.553,-9.107 0.684,-11.245 z"
   id="path1443"
   inkscape:connector-curvature="0" />
					<path
   d="m 664.808,527.66 c 2.189,2.581 4.233,6.34 -0.365,11.688 -2.167,2.684 -6.613,3.816 -11.097,7.289 -4.688,3.192 -7.14,7.07 -10.362,8.302 -6.506,2.721 -9.45,-0.385 -11.068,-3.043 1.297,2.217 4.042,4.694 10.549,1.973 3.222,-1.232 4.467,-6.298 9.156,-9.489 4.483,-3.473 9.855,-3.213 12.022,-5.898 4.597,-5.348 3.034,-8.683 1.165,-10.822 z"
   id="path1444"
   inkscape:connector-curvature="0"
   style="fill:#3a6673" />
				</g>
			</g>
		</g>
		<g
   transform="matrix(-0.809017,-0.587785,0.587785,-0.809017,643.7921,588.5748)"
   id="g1445">
			<path
   d="m 820.265,126.973 c 18.422,-13.384 12.289,-23.254 7.291,-25.48 -5.028,-2.239 -10.421,-3.865 -15.632,-5.793 -18.402,-7.387 -21.056,-4.254 -19.109,13.884 0.224,5.552 0.093,11.192 0.668,16.665 0.573,5.441 8.853,13.751 26.782,0.724 z"
   id="path1446"
   inkscape:connector-curvature="0"
   style="fill:#ffffff;stroke:#000000;stroke-width:0.125" />
			<g
   id="g1447">
				<g
   id="g1448">
					<path
   d="m 806.883,112.635 c 3.176,0.014 3.038,0.201 3.683,-2.676 0.712,2.272 1.425,4.543 2.138,6.815 -1.941,-1.38 -3.881,-2.76 -5.821,-4.139 z"
   id="path1449"
   inkscape:connector-curvature="0" />
					<path
   d="m 809.066,108.571 c 0.609,0.839 0.424,2.014 -0.415,2.623 -0.838,0.609 -2.014,0.423 -2.623,-0.416 -0.609,-0.839 -0.714,-3.007 -0.852,-4.368 1.098,0.578 3.28,1.323 3.89,2.161 z"
   id="path1450"
   inkscape:connector-curvature="0"
   style="fill:#3c4919" />
				</g>
				<g
   id="g1451">
					<path
   d="m 828.495,103.755 c 2.189,2.58 4.233,6.34 -0.365,11.687 -2.167,2.685 -6.613,3.817 -11.098,7.289 -4.687,3.191 -7.14,7.072 -10.362,8.302 -6.506,2.721 -9.451,-0.385 -11.068,-3.044 1.296,2.217 4.24,5.323 10.747,2.602 3.222,-1.23 5.674,-5.111 10.362,-8.302 4.484,-3.473 8.931,-4.604 11.098,-7.289 4.598,-5.347 2.555,-9.107 0.686,-11.245 z"
   id="path1452"
   inkscape:connector-curvature="0" />
					<path
   d="m 827.888,102.919 c 2.19,2.58 4.233,6.341 -0.365,11.688 -2.167,2.684 -6.614,3.816 -11.098,7.289 -4.688,3.191 -7.14,7.071 -10.362,8.302 -6.507,2.721 -9.451,-0.385 -11.068,-3.044 1.296,2.218 4.042,4.694 10.547,1.974 3.223,-1.232 4.468,-6.298 9.156,-9.49 4.484,-3.472 9.856,-3.213 12.022,-5.897 4.6,-5.348 3.037,-8.683 1.168,-10.822 z"
   id="path1453"
   inkscape:connector-curvature="0"
   style="fill:#3a6673" />
				</g>
			</g>
		</g>
		<g
   transform="matrix(0.309017,-0.951057,0.951057,0.309017,108.7295,528.2566)"
   id="g1454">
			<path
   d="m 465.977,-160.399 c 18.421,-13.385 12.288,-23.255 7.29,-25.48 -5.027,-2.238 -10.421,-3.864 -15.632,-5.794 -18.403,-7.387 -21.058,-4.254 -19.109,13.884 0.223,5.553 0.093,11.193 0.669,16.666 0.57,5.441 8.851,13.751 26.782,0.724 z"
   id="path1455"
   inkscape:connector-curvature="0"
   style="fill:#ffffff;stroke:#000000;stroke-width:0.125" />
			<g
   id="g1456">
				<g
   id="g1457">
					<path
   d="m 452.594,-174.737 c 3.175,0.015 3.036,0.2 3.682,-2.676 0.712,2.272 1.425,4.543 2.138,6.815 -1.94,-1.382 -3.88,-2.76 -5.82,-4.139 z"
   id="path1458"
   inkscape:connector-curvature="0" />
					<path
   d="m 454.776,-178.802 c 0.61,0.84 0.424,2.014 -0.415,2.623 -0.839,0.61 -2.014,0.424 -2.623,-0.415 -0.609,-0.838 -0.714,-3.005 -0.851,-4.368 1.097,0.577 3.28,1.322 3.889,2.16 z"
   id="path1459"
   inkscape:connector-curvature="0"
   style="fill:#3c4919" />
				</g>
				<g
   id="g1460">
					<path
   d="m 474.205,-183.618 c 2.189,2.581 4.233,6.34 -0.365,11.688 -2.167,2.684 -6.614,3.817 -11.098,7.289 -4.688,3.191 -7.139,7.07 -10.362,8.302 -6.506,2.721 -9.451,-0.384 -11.068,-3.044 1.297,2.218 4.241,5.325 10.747,2.603 3.222,-1.232 5.673,-5.111 10.362,-8.302 4.484,-3.475 8.931,-4.605 11.098,-7.289 4.599,-5.348 2.555,-9.108 0.686,-11.247 z"
   id="path1461"
   inkscape:connector-curvature="0" />
					<path
   d="m 473.598,-184.452 c 2.19,2.579 4.234,6.34 -0.364,11.688 -2.167,2.684 -6.614,3.815 -11.097,7.289 -4.689,3.191 -7.14,7.07 -10.362,8.302 -6.507,2.721 -9.452,-0.384 -11.068,-3.044 1.296,2.218 4.041,4.694 10.547,1.973 3.222,-1.232 4.467,-6.298 9.155,-9.489 4.484,-3.473 9.856,-3.213 12.023,-5.897 4.598,-5.349 3.035,-8.684 1.166,-10.822 z"
   id="path1462"
   inkscape:connector-curvature="0"
   style="fill:#3a6673" />
				</g>
			</g>
		</g>
	</g>
	<g
   transform="matrix(0.446511,-0.324409,0.324409,0.446511,171.4232,243.8542)"
   id="g1509">
		<g
   id="g1510">
			<path
   d="m 65.115,-366.404 c 18.42,-13.384 12.288,-23.253 7.289,-25.479 -5.027,-2.238 -10.42,-3.864 -15.631,-5.792 -18.402,-7.387 -21.058,-4.256 -19.11,13.883 0.224,5.552 0.094,11.192 0.669,16.666 0.572,5.44 8.852,13.749 26.783,0.722 z"
   id="path1511"
   inkscape:connector-curvature="0"
   style="fill:#ffffff;stroke:#000000;stroke-width:0.125" />
			<g
   id="g1512">
				<g
   id="g1513">
					<path
   d="m 51.732,-380.742 c 3.176,0.015 3.036,0.201 3.683,-2.674 0.712,2.271 1.422,4.542 2.138,6.813 -1.939,-1.379 -3.882,-2.759 -5.821,-4.139 z"
   id="path1514"
   inkscape:connector-curvature="0" />
					<path
   d="m 53.913,-384.806 c 0.61,0.84 0.425,2.016 -0.413,2.625 -0.84,0.608 -2.013,0.423 -2.624,-0.416 -0.611,-0.839 -0.714,-3.006 -0.851,-4.368 1.096,0.576 3.281,1.321 3.888,2.159 z"
   id="path1515"
   inkscape:connector-curvature="0"
   style="fill:#3c4919" />
				</g>
				<g
   id="g1516">
					<path
   d="m 73.344,-389.621 c 2.188,2.579 4.233,6.341 -0.366,11.687 -2.167,2.685 -6.614,3.817 -11.098,7.288 -4.688,3.192 -7.139,7.072 -10.362,8.304 -6.507,2.719 -9.45,-0.386 -11.067,-3.043 1.296,2.217 4.241,5.321 10.747,2.601 3.223,-1.23 5.673,-5.11 10.362,-8.302 4.481,-3.474 8.93,-4.605 11.097,-7.29 4.597,-5.347 2.555,-9.105 0.687,-11.245 z"
   id="path1517"
   inkscape:connector-curvature="0" />
					<path
   d="m 72.737,-390.456 c 2.19,2.579 4.231,6.337 -0.364,11.687 -2.169,2.684 -6.615,3.816 -11.099,7.29 -4.688,3.19 -7.138,7.07 -10.361,8.3 -6.507,2.722 -9.453,-0.385 -11.067,-3.046 1.296,2.219 4.04,4.696 10.546,1.975 3.224,-1.231 4.467,-6.299 9.157,-9.49 4.483,-3.473 9.856,-3.213 12.022,-5.896 4.596,-5.346 3.035,-8.682 1.166,-10.82 z"
   id="path1518"
   inkscape:connector-curvature="0"
   style="fill:#3a6673" />
				</g>
			</g>
		</g>
		<g
   transform="matrix(0.309017,0.951056,-0.951056,0.309017,469.9921,-266.9364)"
   id="g1519">
			<path
   d="m -236.645,406.798 c 18.42,-13.383 12.287,-23.252 7.292,-25.479 -5.029,-2.241 -10.422,-3.866 -15.635,-5.794 -18.403,-7.386 -21.057,-4.254 -19.109,13.883 0.224,5.552 0.093,11.191 0.67,16.666 0.572,5.441 8.852,13.751 26.782,0.724 z"
   id="path1520"
   inkscape:connector-curvature="0"
   style="fill:#ffffff;stroke:#000000;stroke-width:0.125" />
			<g
   id="g1521">
				<g
   id="g1522">
					<path
   d="m -250.028,392.459 c 3.176,0.015 3.037,0.201 3.683,-2.676 0.712,2.274 1.424,4.543 2.136,6.818 -1.94,-1.383 -3.878,-2.761 -5.819,-4.142 z"
   id="path1523"
   inkscape:connector-curvature="0" />
					<path
   d="m -247.844,388.397 c 0.608,0.837 0.422,2.014 -0.418,2.624 -0.836,0.607 -2.012,0.421 -2.621,-0.416 -0.61,-0.84 -0.716,-3.008 -0.855,-4.368 1.101,0.576 3.283,1.319 3.894,2.16 z"
   id="path1524"
   inkscape:connector-curvature="0"
   style="fill:#3c4919" />
				</g>
				<g
   id="g1525">
					<path
   d="m -228.416,383.581 c 2.189,2.58 4.234,6.339 -0.365,11.686 -2.166,2.685 -6.615,3.815 -11.1,7.29 -4.687,3.188 -7.137,7.071 -10.359,8.301 -6.506,2.722 -9.451,-0.384 -11.067,-3.044 1.295,2.217 4.24,5.324 10.746,2.601 3.222,-1.23 5.675,-5.109 10.359,-8.301 4.487,-3.472 8.934,-4.606 11.1,-7.29 4.6,-5.345 2.554,-9.105 0.686,-11.243 z"
   id="path1526"
   inkscape:connector-curvature="0" />
					<path
   d="m -229.024,382.743 c 2.189,2.58 4.234,6.339 -0.363,11.689 -2.167,2.683 -6.614,3.817 -11.101,7.289 -4.684,3.191 -7.137,7.071 -10.358,8.302 -6.508,2.719 -9.453,-0.387 -11.068,-3.045 1.296,2.219 4.041,4.695 10.547,1.973 3.222,-1.23 4.467,-6.296 9.155,-9.488 4.485,-3.473 9.856,-3.213 12.023,-5.899 4.598,-5.345 3.035,-8.68 1.165,-10.821 z"
   id="path1527"
   inkscape:connector-curvature="0"
   style="fill:#3a6673" />
				</g>
			</g>
		</g>
		<g
   transform="matrix(-0.809017,0.587785,-0.587785,-0.809017,865.9057,96.66981)"
   id="g1528">
			<path
   d="m 404.726,930.489 c 18.42,-13.384 12.29,-23.254 7.291,-25.48 -5.029,-2.239 -10.422,-3.864 -15.635,-5.792 -18.403,-7.389 -21.055,-4.254 -19.109,13.883 0.225,5.552 0.094,11.192 0.67,16.665 0.573,5.441 8.852,13.751 26.783,0.724 z"
   id="path1529"
   inkscape:connector-curvature="0"
   style="fill:#ffffff;stroke:#000000;stroke-width:0.125" />
			<g
   id="g1530">
				<g
   id="g1531">
					<path
   d="m 391.344,916.149 c 3.176,0.015 3.038,0.202 3.681,-2.674 0.714,2.271 1.427,4.542 2.139,6.814 -1.941,-1.38 -3.88,-2.76 -5.82,-4.14 z"
   id="path1532"
   inkscape:connector-curvature="0" />
					<path
   d="m 393.525,912.086 c 0.61,0.839 0.424,2.014 -0.416,2.625 -0.837,0.609 -2.014,0.422 -2.622,-0.416 -0.61,-0.84 -0.716,-3.006 -0.853,-4.368 1.099,0.577 3.281,1.321 3.891,2.159 z"
   id="path1533"
   inkscape:connector-curvature="0"
   style="fill:#3c4919" />
				</g>
				<g
   id="g1534">
					<path
   d="m 412.954,907.269 c 2.191,2.58 4.235,6.341 -0.366,11.688 -2.166,2.684 -6.613,3.817 -11.096,7.289 -4.688,3.192 -7.14,7.073 -10.362,8.302 -6.506,2.721 -9.451,-0.384 -11.068,-3.044 1.296,2.218 4.24,5.324 10.747,2.603 3.222,-1.231 5.673,-5.11 10.363,-8.303 4.483,-3.471 8.93,-4.604 11.096,-7.287 4.602,-5.348 2.556,-9.107 0.686,-11.248 z"
   id="path1535"
   inkscape:connector-curvature="0" />
					<path
   d="m 412.348,906.434 c 2.189,2.581 4.233,6.34 -0.366,11.688 -2.168,2.685 -6.613,3.817 -11.097,7.289 -4.688,3.191 -7.139,7.069 -10.362,8.301 -6.507,2.723 -9.451,-0.385 -11.067,-3.044 1.296,2.218 4.041,4.695 10.548,1.973 3.222,-1.229 4.466,-6.297 9.156,-9.487 4.483,-3.473 9.854,-3.214 12.022,-5.897 4.599,-5.348 3.035,-8.685 1.166,-10.823 z"
   id="path1536"
   inkscape:connector-curvature="0"
   style="fill:#3a6673" />
				</g>
			</g>
		</g>
		<g
   transform="matrix(-0.809017,-0.587785,0.587785,-0.809017,643.7921,588.5748)"
   id="g1537">
			<path
   d="m 1102.488,484.125 c 18.421,-13.385 12.288,-23.255 7.29,-25.479 -5.028,-2.238 -10.42,-3.864 -15.632,-5.794 -18.404,-7.387 -21.055,-4.254 -19.109,13.884 0.223,5.553 0.092,11.192 0.669,16.666 0.57,5.44 8.85,13.75 26.782,0.723 z"
   id="path1538"
   inkscape:connector-curvature="0"
   style="fill:#ffffff;stroke:#000000;stroke-width:0.125" />
			<g
   id="g1539">
				<g
   id="g1540">
					<path
   d="m 1089.105,469.786 c 3.175,0.014 3.037,0.201 3.683,-2.675 0.712,2.271 1.424,4.542 2.137,6.815 -1.94,-1.38 -3.88,-2.761 -5.82,-4.14 z"
   id="path1541"
   inkscape:connector-curvature="0" />
					<path
   d="m 1091.287,465.723 c 0.61,0.839 0.423,2.014 -0.415,2.624 -0.839,0.608 -2.014,0.422 -2.624,-0.417 -0.61,-0.838 -0.714,-3.006 -0.852,-4.367 1.1,0.576 3.283,1.321 3.891,2.16 z"
   id="path1542"
   inkscape:connector-curvature="0"
   style="fill:#3c4919" />
				</g>
				<g
   id="g1543">
					<path
   d="m 1110.715,460.907 c 2.191,2.58 4.234,6.34 -0.365,11.687 -2.167,2.684 -6.612,3.817 -11.097,7.29 -4.689,3.19 -7.14,7.071 -10.362,8.301 -6.506,2.721 -9.452,-0.385 -11.068,-3.043 1.297,2.218 4.241,5.323 10.748,2.602 3.22,-1.232 5.673,-5.111 10.362,-8.301 4.483,-3.473 8.93,-4.605 11.096,-7.29 4.6,-5.348 2.556,-9.108 0.686,-11.246 z"
   id="path1544"
   inkscape:connector-curvature="0" />
					<path
   d="m 1110.109,460.071 c 2.19,2.58 4.233,6.34 -0.365,11.688 -2.167,2.683 -6.613,3.816 -11.098,7.289 -4.689,3.19 -7.139,7.07 -10.361,8.3 -6.507,2.722 -9.451,-0.384 -11.068,-3.042 1.295,2.217 4.041,4.694 10.547,1.973 3.224,-1.232 4.468,-6.298 9.156,-9.489 4.484,-3.472 9.856,-3.213 12.022,-5.897 4.599,-5.348 3.037,-8.683 1.167,-10.822 z"
   id="path1545"
   inkscape:connector-curvature="0"
   style="fill:#3a6673" />
				</g>
			</g>
		</g>
		<g
   transform="matrix(0.309017,-0.951057,0.951057,0.309017,108.7295,528.2566)"
   id="g1546">
			<path
   d="m 892.858,-318.443 c 18.421,-13.384 12.288,-23.256 7.291,-25.478 -5.027,-2.24 -10.421,-3.866 -15.633,-5.794 -18.402,-7.386 -21.056,-4.256 -19.109,13.884 0.223,5.554 0.093,11.191 0.667,16.667 0.572,5.44 8.854,13.747 26.784,0.721 z"
   id="path1547"
   inkscape:connector-curvature="0"
   style="fill:#ffffff;stroke:#000000;stroke-width:0.125" />
			<g
   id="g1548">
				<g
   id="g1549">
					<path
   d="m 879.476,-332.782 c 3.176,0.016 3.037,0.204 3.682,-2.674 0.713,2.271 1.425,4.543 2.137,6.815 -1.939,-1.38 -3.879,-2.76 -5.819,-4.141 z"
   id="path1550"
   inkscape:connector-curvature="0" />
					<path
   d="m 881.658,-336.843 c 0.61,0.838 0.423,2.015 -0.415,2.622 -0.839,0.609 -2.015,0.424 -2.624,-0.413 -0.609,-0.84 -0.714,-3.008 -0.852,-4.37 1.099,0.579 3.281,1.323 3.891,2.161 z"
   id="path1551"
   inkscape:connector-curvature="0"
   style="fill:#3c4919" />
				</g>
				<g
   id="g1552">
					<path
   d="m 901.087,-341.659 c 2.19,2.579 4.234,6.339 -0.364,11.686 -2.168,2.685 -6.615,3.815 -11.099,7.29 -4.689,3.191 -7.138,7.068 -10.361,8.3 -6.506,2.721 -9.451,-0.384 -11.067,-3.043 1.295,2.218 4.24,5.323 10.747,2.603 3.222,-1.232 5.673,-5.111 10.362,-8.302 4.483,-3.472 8.93,-4.607 11.097,-7.289 4.598,-5.347 2.553,-9.107 0.685,-11.245 z"
   id="path1553"
   inkscape:connector-curvature="0" />
					<path
   d="m 900.48,-342.496 c 2.189,2.583 4.234,6.339 -0.366,11.69 -2.167,2.684 -6.613,3.814 -11.098,7.289 -4.689,3.191 -7.139,7.07 -10.361,8.298 -6.508,2.725 -9.451,-0.383 -11.068,-3.042 1.297,2.217 4.041,4.695 10.547,1.974 3.223,-1.232 4.468,-6.299 9.156,-9.49 4.484,-3.473 9.856,-3.214 12.022,-5.897 4.6,-5.348 3.037,-8.682 1.168,-10.822 z"
   id="path1554"
   inkscape:connector-curvature="0"
   style="fill:#3a6673" />
				</g>
			</g>
		</g>
	</g>
</g><g
       id="g106">
	<ellipse
   id="ellipse108"
   ry="26.830999"
   rx="25.697001"
   cy="51.192001"
   cx="57.019001"
   sodipodi:cx="57.019001"
   sodipodi:cy="51.192001"
   sodipodi:rx="25.697001"
   sodipodi:ry="26.830999"
   style="fill:#ffffff"
   d="m 82.716002,51.192001 c 0,14.818352 -11.504939,26.831 -25.697001,26.831 -14.192061,0 -25.697,-12.012648 -25.697,-26.831 0,-14.818351 11.504939,-26.830999 25.697,-26.830999 14.192062,0 25.697001,12.012648 25.697001,26.830999 z" />
	<ellipse
   id="ellipse110"
   ry="8.0979996"
   rx="7.8979998"
   cy="42.126999"
   cx="28.775999"
   sodipodi:cx="28.775999"
   sodipodi:cy="42.126999"
   sodipodi:rx="7.8979998"
   sodipodi:ry="8.0979996"
   style="fill:#ffffff"
   d="m 36.673999,42.126999 c 0,4.472402 -3.536055,8.097999 -7.898,8.097999 -4.361945,0 -7.898,-3.625597 -7.898,-8.097999 0,-4.472402 3.536055,-8.098 7.898,-8.098 4.361945,0 7.898,3.625598 7.898,8.098 z" />
	<ellipse
   id="ellipse112"
   ry="7.493"
   rx="8.842"
   cy="21.459999"
   cx="55.014999"
   sodipodi:cx="55.014999"
   sodipodi:cy="21.459999"
   sodipodi:rx="8.842"
   sodipodi:ry="7.493"
   style="fill:#ffffff"
   d="m 63.856999,21.459999 c 0,4.13827 -3.958698,7.493 -8.842,7.493 -4.883301,0 -8.842,-3.35473 -8.842,-7.493 0,-4.13827 3.958699,-7.493 8.842,-7.493 4.883302,0 8.842,3.35473 8.842,7.493 z" />
	<ellipse
   id="ellipse114"
   ry="5.5599999"
   rx="8.2510004"
   cy="40.797001"
   cx="83.660004"
   sodipodi:cx="83.660004"
   sodipodi:cy="40.797001"
   sodipodi:rx="8.2510004"
   sodipodi:ry="5.5599999"
   style="fill:#ffffff"
   d="m 91.911004,40.797001 c 0,3.070703 -3.694099,5.56 -8.251,5.56 -4.556902,0 -8.251001,-2.489297 -8.251001,-5.56 0,-3.070703 3.694099,-5.56 8.251001,-5.56 4.556901,0 8.251,2.489297 8.251,5.56 z" />
	<ellipse
   id="ellipse116"
   ry="6.164"
   rx="6.2480001"
   cy="75.484001"
   cx="74.111"
   sodipodi:cx="74.111"
   sodipodi:cy="75.484001"
   sodipodi:rx="6.2480001"
   sodipodi:ry="6.164"
   style="fill:#ffffff"
   d="m 80.359,75.484001 c 0,3.404283 -2.797325,6.164 -6.248,6.164 -3.450675,0 -6.248,-2.759717 -6.248,-6.164 0,-3.404283 2.797325,-6.164 6.248,-6.164 3.450675,0 6.248,2.759717 6.248,6.164 z" />
	<ellipse
   id="ellipse118"
   ry="7.2509999"
   rx="7.5440001"
   cy="75.121002"
   cx="40.043999"
   sodipodi:cx="40.043999"
   sodipodi:cy="75.121002"
   sodipodi:rx="7.5440001"
   sodipodi:ry="7.2509999"
   style="fill:#ffffff"
   d="m 47.587999,75.121002 c 0,4.004617 -3.377564,7.251 -7.544,7.251 -4.166437,0 -7.544,-3.246383 -7.544,-7.251 0,-4.004616 3.377563,-7.251 7.544,-7.251 4.166436,0 7.544,3.246384 7.544,7.251 z" />
</g><g
       transform="matrix(1.0229817,0,0,1.0517246,-0.57548269,-2.7157821)"
       id="g238">
	<path
   style="fill:#eed706;stroke:#6b2910"
   d="M 55.164,90.671 42.742,78.248 44.861,76.13 30.051,61.318 27.932,63.438 15.511,51.018 34.132,32.396 46.554,44.817 42.509,48.863 45.051,51.405 55.553,40.902 53.012,38.36 49.105,42.267 36.682,29.846 55.164,11.364 67.586,23.786 65.468,25.905 80.276,40.715 82.396,38.596 94.819,51.018 76.337,69.5 63.914,57.077 67.82,53.171 65.754,51.103 55.251,61.607 57.316,63.673 61.361,59.627 73.786,72.05 55.164,90.671 z"
   id="path240"
   inkscape:connector-curvature="0" />
</g></g></g></svg>