<?xml version="1.0" encoding="UTF-8" standalone="no"?>
<!-- Generator: Adobe Illustrator 13.0.0, SVG Export Plug-In . SVG Version: 6.00 Build 14948)  -->

<svg
   xmlns:dc="http://purl.org/dc/elements/1.1/"
   xmlns:cc="http://creativecommons.org/ns#"
   xmlns:rdf="http://www.w3.org/1999/02/22-rdf-syntax-ns#"
   xmlns:svg="http://www.w3.org/2000/svg"
   xmlns="http://www.w3.org/2000/svg"
   xmlns:sodipodi="http://sodipodi.sourceforge.net/DTD/sodipodi-0.dtd"
   xmlns:inkscape="http://www.inkscape.org/namespaces/inkscape"
   version="1.1"
   id="Layer_1"
   inkscape:output_extension="org.inkscape.output.svg.inkscape"
   sodipodi:version="0.32"
   sodipodi:docname="york_hackspace_logo.svg"
   inkscape:version="0.47pre4 r22446"
   x="0px"
   y="0px"
   width="114px"
   height="114px"
   viewBox="0 0 114 114"
   enable-background="new 0 0 114 114"
   xml:space="preserve"><metadata
   id="metadata122"><rdf:RDF><cc:Work
       rdf:about=""><dc:format>image/svg+xml</dc:format><dc:type
         rdf:resource="http://purl.org/dc/dcmitype/StillImage" /></cc:Work></rdf:RDF></metadata>
<g
   id="g1991">
	<path
   id="path1986"
   fill="#3B8536"
   d="M20.537,3.73c-0.621,9.539,2.478,20.362,9.4,29.89c6.922,9.528,16.249,15.806,25.512,18.164   c0.623-9.54-2.453-20.356-9.377-29.886S29.802,6.086,20.537,3.73z" />
	<path
   id="path1987"
   fill="#3B8536"
   d="M89.987,3.998c-9.265,2.357-18.6,8.649-25.523,18.177   c-6.921,9.528-10.011,20.338-9.39,29.877c9.265-2.356,18.602-8.625,25.525-18.154S90.608,13.538,89.987,3.998z" />
	<path
   id="path1988"
   fill="#3B8536"
   d="M111.819,69.85c-5.105-8.081-13.974-15.017-25.175-18.657   c-11.2-3.639-22.436-3.236-31.315,0.302c5.104,8.083,13.949,15.026,25.152,18.667C91.684,73.801,102.938,73.389,111.819,69.85z" />
	<path
   id="path1989"
   fill="#3B8536"
   d="M55.227,110.967c6.108-7.353,9.964-17.93,9.964-29.707s-3.855-22.338-9.964-29.69   c-6.111,7.352-9.981,17.911-9.981,29.69S49.116,103.614,55.227,110.967z" />
	<path
   id="path1990"
   fill="#3B8536"
   d="M-0.406,70.204c8.88,3.537,20.131,3.935,31.333,0.296c11.2-3.64,20.053-10.57,25.158-18.651   c-8.88-3.54-20.119-3.957-31.321-0.317C13.56,55.171,4.698,62.12-0.406,70.204z" />
</g>
<g
   id="g1681">
	<g
   id="g1463">
		<g
   id="g1418">
			<path
   id="path1270"
   fill="#FFFFFF"
   stroke="#000000"
   stroke-width="0.125"
   d="M83.508,88.424     c18.421-13.384,12.289-23.254,7.291-25.479c-5.028-2.237-10.421-3.864-15.633-5.793c-18.402-7.387-21.057-4.255-19.109,13.884     c0.225,5.552,0.094,11.191,0.668,16.665C57.297,93.141,65.577,101.45,83.508,88.424z" />
			<g
   id="g1411">
				<g
   id="g1408">
					<path
   id="path1378"
   d="M70.126,74.086c3.175,0.014,3.036,0.2,3.682-2.676c0.713,2.271,1.425,4.542,2.138,6.814       C74.006,76.846,72.065,75.466,70.126,74.086z" />
					<path
   id="path1380"
   fill="#3C4919"
   d="M72.308,70.022c0.61,0.839,0.424,2.013-0.416,2.623       c-0.838,0.608-2.014,0.423-2.622-0.416c-0.61-0.838-0.715-3.006-0.853-4.368C69.516,68.439,71.699,69.184,72.308,70.022z" />
				</g>
				<g
   id="g1403">
					<path
   id="path1398"
   d="M91.735,65.205c2.191,2.581,4.234,6.342-0.363,11.688c-2.167,2.685-6.614,3.815-11.098,7.289       c-4.688,3.19-7.14,7.07-10.362,8.302c-6.506,2.721-9.451-0.384-11.068-3.043c1.297,2.217,4.241,5.322,10.748,2.602       c3.223-1.232,5.674-5.11,10.361-8.302c4.484-3.473,8.932-4.605,11.098-7.289C95.649,71.104,93.605,67.345,91.735,65.205z" />
					<path
   id="path1402"
   fill="#3A6673"
   d="M91.129,64.37c2.19,2.58,4.234,6.341-0.364,11.688       c-2.167,2.685-6.614,3.816-11.097,7.289c-4.69,3.191-7.141,7.07-10.363,8.302c-6.506,2.721-9.45-0.384-11.066-3.044       c1.296,2.218,4.041,4.694,10.548,1.973c3.222-1.23,4.466-6.297,9.155-9.488c4.482-3.473,9.855-3.213,12.021-5.897       C94.562,69.845,92.998,66.509,91.129,64.37z" />
				</g>
			</g>
		</g>
		<g
   id="g1427"
   transform="matrix(0.309017,0.951056,-0.951056,0.309017,469.9921,-266.9364)">
			<path
   id="path1428"
   fill="#FFFFFF"
   stroke="#000000"
   stroke-width="0.125"
   d="M201.606,529.854     c18.421-13.384,12.287-23.254,7.29-25.479c-5.028-2.239-10.421-3.865-15.632-5.794c-18.403-7.386-21.057-4.254-19.11,13.884     c0.224,5.552,0.094,11.191,0.669,16.665C175.395,534.571,183.675,542.882,201.606,529.854z" />
			<g
   id="g1429">
				<g
   id="g1430">
					<path
   id="path1431"
   d="M188.223,515.515c3.175,0.014,3.037,0.201,3.683-2.675c0.712,2.272,1.426,4.543,2.138,6.815       C192.103,518.275,190.163,516.895,188.223,515.515z" />
					<path
   id="path1432"
   fill="#3C4919"
   d="M190.405,511.452c0.61,0.839,0.423,2.014-0.415,2.623       c-0.84,0.609-2.015,0.424-2.624-0.415c-0.61-0.839-0.714-3.007-0.853-4.368C187.612,509.869,189.796,510.613,190.405,511.452z" />
				</g>
				<g
   id="g1433">
					<path
   id="path1434"
   d="M209.835,506.635c2.189,2.58,4.232,6.34-0.366,11.688c-2.166,2.684-6.613,3.817-11.097,7.289       c-4.688,3.191-7.139,7.071-10.363,8.302c-6.506,2.721-9.45-0.384-11.067-3.043c1.297,2.218,4.239,5.323,10.747,2.602       c3.222-1.231,5.673-5.11,10.362-8.302c4.484-3.473,8.93-4.605,11.099-7.289C213.748,512.534,211.703,508.774,209.835,506.635z" />
					<path
   id="path1435"
   fill="#3A6673"
   d="M209.227,505.8c2.189,2.58,4.233,6.341-0.365,11.688       c-2.167,2.684-6.613,3.816-11.097,7.289c-4.688,3.191-7.14,7.07-10.362,8.302c-6.508,2.72-9.451-0.385-11.069-3.045       c1.297,2.218,4.042,4.695,10.548,1.974c3.222-1.232,4.467-6.297,9.156-9.489c4.483-3.473,9.856-3.213,12.023-5.898       C212.66,511.275,211.096,507.938,209.227,505.8z" />
				</g>
			</g>
		</g>
		<g
   id="g1436"
   transform="matrix(-0.809017,0.587785,-0.587785,-0.809017,865.9057,96.66981)">
			<path
   id="path1437"
   fill="#FFFFFF"
   stroke="#000000"
   stroke-width="0.125"
   d="M657.186,551.714     c18.422-13.385,12.288-23.254,7.291-25.48c-5.029-2.238-10.421-3.864-15.633-5.792c-18.402-7.386-21.057-4.255-19.109,13.883     c0.224,5.552,0.094,11.192,0.668,16.666C630.975,556.431,639.255,564.741,657.186,551.714z" />
			<g
   id="g1438">
				<g
   id="g1439">
					<path
   id="path1440"
   d="M643.803,537.375c3.176,0.014,3.037,0.201,3.682-2.675c0.713,2.271,1.425,4.543,2.138,6.814       C647.683,540.135,645.744,538.755,643.803,537.375z" />
					<path
   id="path1441"
   fill="#3C4919"
   d="M645.986,533.312c0.609,0.839,0.423,2.014-0.416,2.624       c-0.838,0.609-2.014,0.423-2.623-0.416c-0.61-0.839-0.715-3.006-0.853-4.368C643.194,531.729,645.376,532.473,645.986,533.312z       " />
				</g>
				<g
   id="g1442">
					<path
   id="path1443"
   d="M665.414,528.496c2.189,2.581,4.234,6.34-0.365,11.687c-2.167,2.685-6.614,3.816-11.097,7.289       c-4.688,3.191-7.14,7.071-10.362,8.302c-6.507,2.721-9.451-0.384-11.067-3.044c1.295,2.218,4.24,5.324,10.748,2.602       c3.222-1.231,5.672-5.111,10.361-8.302c4.484-3.473,8.931-4.605,11.098-7.289C669.327,534.394,667.283,530.634,665.414,528.496       z" />
					<path
   id="path1444"
   fill="#3A6673"
   d="M664.808,527.66c2.189,2.581,4.233,6.34-0.365,11.688       c-2.167,2.684-6.613,3.816-11.097,7.289c-4.688,3.192-7.14,7.07-10.362,8.302c-6.506,2.721-9.45-0.385-11.068-3.043       c1.297,2.217,4.042,4.694,10.549,1.973c3.222-1.232,4.467-6.298,9.156-9.489c4.483-3.473,9.855-3.213,12.022-5.898       C668.24,533.134,666.677,529.799,664.808,527.66z" />
				</g>
			</g>
		</g>
		<g
   id="g1445"
   transform="matrix(-0.809017,-0.587785,0.587785,-0.809017,643.7921,588.5748)">
			<path
   id="path1446"
   fill="#FFFFFF"
   stroke="#000000"
   stroke-width="0.125"
   d="M820.265,126.973     c18.422-13.384,12.289-23.254,7.291-25.48c-5.028-2.239-10.421-3.865-15.632-5.793c-18.402-7.387-21.056-4.254-19.109,13.884     c0.224,5.552,0.093,11.192,0.668,16.665C794.056,131.69,802.336,140,820.265,126.973z" />
			<g
   id="g1447">
				<g
   id="g1448">
					<path
   id="path1449"
   d="M806.883,112.635c3.176,0.014,3.038,0.201,3.683-2.676c0.712,2.272,1.425,4.543,2.138,6.815       C810.763,115.394,808.823,114.014,806.883,112.635z" />
					<path
   id="path1450"
   fill="#3C4919"
   d="M809.066,108.571c0.609,0.839,0.424,2.014-0.415,2.623       c-0.838,0.609-2.014,0.423-2.623-0.416c-0.609-0.839-0.714-3.007-0.852-4.368C806.274,106.988,808.456,107.733,809.066,108.571       z" />
				</g>
				<g
   id="g1451">
					<path
   id="path1452"
   d="M828.495,103.755c2.189,2.58,4.233,6.34-0.365,11.687c-2.167,2.685-6.613,3.817-11.098,7.289       c-4.687,3.191-7.14,7.072-10.362,8.302c-6.506,2.721-9.451-0.385-11.068-3.044c1.296,2.217,4.24,5.323,10.747,2.602       c3.222-1.23,5.674-5.111,10.362-8.302c4.484-3.473,8.931-4.604,11.098-7.289C832.407,109.653,830.364,105.893,828.495,103.755z       " />
					<path
   id="path1453"
   fill="#3A6673"
   d="M827.888,102.919c2.19,2.58,4.233,6.341-0.365,11.688       c-2.167,2.684-6.614,3.816-11.098,7.289c-4.688,3.191-7.14,7.071-10.362,8.302c-6.507,2.721-9.451-0.385-11.068-3.044       c1.296,2.218,4.042,4.694,10.547,1.974c3.223-1.232,4.468-6.298,9.156-9.49c4.484-3.472,9.856-3.213,12.022-5.897       C831.32,108.393,829.757,105.058,827.888,102.919z" />
				</g>
			</g>
		</g>
		<g
   id="g1454"
   transform="matrix(0.309017,-0.951057,0.951057,0.309017,108.7295,528.2566)">
			<path
   id="path1455"
   fill="#FFFFFF"
   stroke="#000000"
   stroke-width="0.125"
   d="M465.977-160.399     c18.421-13.385,12.288-23.255,7.29-25.48c-5.027-2.238-10.421-3.864-15.632-5.794c-18.403-7.387-21.058-4.254-19.109,13.884     c0.223,5.553,0.093,11.193,0.669,16.666C439.765-155.682,448.046-147.372,465.977-160.399z" />
			<g
   id="g1456">
				<g
   id="g1457">
					<path
   id="path1458"
   d="M452.594-174.737c3.175,0.015,3.036,0.2,3.682-2.676c0.712,2.272,1.425,4.543,2.138,6.815       C456.474-171.98,454.534-173.358,452.594-174.737z" />
					<path
   id="path1459"
   fill="#3C4919"
   d="M454.776-178.802c0.61,0.84,0.424,2.014-0.415,2.623       c-0.839,0.61-2.014,0.424-2.623-0.415c-0.609-0.838-0.714-3.005-0.851-4.368C451.984-180.385,454.167-179.64,454.776-178.802z" />
				</g>
				<g
   id="g1460">
					<path
   id="path1461"
   d="M474.205-183.618c2.189,2.581,4.233,6.34-0.365,11.688c-2.167,2.684-6.614,3.817-11.098,7.289       c-4.688,3.191-7.139,7.07-10.362,8.302c-6.506,2.721-9.451-0.384-11.068-3.044c1.297,2.218,4.241,5.325,10.747,2.603       c3.222-1.232,5.673-5.111,10.362-8.302c4.484-3.475,8.931-4.605,11.098-7.289C478.118-177.719,476.074-181.479,474.205-183.618       z" />
					<path
   id="path1462"
   fill="#3A6673"
   d="M473.598-184.452c2.19,2.579,4.234,6.34-0.364,11.688       c-2.167,2.684-6.614,3.815-11.097,7.289c-4.689,3.191-7.14,7.07-10.362,8.302c-6.507,2.721-9.452-0.384-11.068-3.044       c1.296,2.218,4.041,4.694,10.547,1.973c3.222-1.232,4.467-6.298,9.155-9.489c4.484-3.473,9.856-3.213,12.023-5.897       C477.03-178.979,475.467-182.314,473.598-184.452z" />
				</g>
			</g>
		</g>
	</g>
	<g
   id="g1509"
   transform="matrix(0.446511,-0.324409,0.324409,0.446511,171.4232,243.8542)">
		<g
   id="g1510">
			<path
   id="path1511"
   fill="#FFFFFF"
   stroke="#000000"
   stroke-width="0.125"
   d="M65.115-366.404     c18.42-13.384,12.288-23.253,7.289-25.479c-5.027-2.238-10.42-3.864-15.631-5.792c-18.402-7.387-21.058-4.256-19.11,13.883     c0.224,5.552,0.094,11.192,0.669,16.666C38.904-361.686,47.184-353.377,65.115-366.404z" />
			<g
   id="g1512">
				<g
   id="g1513">
					<path
   id="path1514"
   d="M51.732-380.742c3.176,0.015,3.036,0.201,3.683-2.674c0.712,2.271,1.422,4.542,2.138,6.813       C55.614-377.982,53.671-379.362,51.732-380.742z" />
					<path
   id="path1515"
   fill="#3C4919"
   d="M53.913-384.806c0.61,0.84,0.425,2.016-0.413,2.625c-0.84,0.608-2.013,0.423-2.624-0.416       c-0.611-0.839-0.714-3.006-0.851-4.368C51.121-386.389,53.306-385.644,53.913-384.806z" />
				</g>
				<g
   id="g1516">
					<path
   id="path1517"
   d="M73.344-389.621c2.188,2.579,4.233,6.341-0.366,11.687c-2.167,2.685-6.614,3.817-11.098,7.288       c-4.688,3.192-7.139,7.072-10.362,8.304c-6.507,2.719-9.45-0.386-11.067-3.043c1.296,2.217,4.241,5.321,10.747,2.601       c3.223-1.23,5.673-5.11,10.362-8.302c4.481-3.474,8.93-4.605,11.097-7.29C77.254-383.723,75.212-387.481,73.344-389.621z" />
					<path
   id="path1518"
   fill="#3A6673"
   d="M72.737-390.456c2.19,2.579,4.231,6.337-0.364,11.687       c-2.169,2.684-6.615,3.816-11.099,7.29c-4.688,3.19-7.138,7.07-10.361,8.3c-6.507,2.722-9.453-0.385-11.067-3.046       c1.296,2.219,4.04,4.696,10.546,1.975c3.224-1.231,4.467-6.299,9.157-9.49c4.483-3.473,9.856-3.213,12.022-5.896       C76.167-384.982,74.606-388.318,72.737-390.456z" />
				</g>
			</g>
		</g>
		<g
   id="g1519"
   transform="matrix(0.309017,0.951056,-0.951056,0.309017,469.9921,-266.9364)">
			<path
   id="path1520"
   fill="#FFFFFF"
   stroke="#000000"
   stroke-width="0.125"
   d="M-236.645,406.798     c18.42-13.383,12.287-23.252,7.292-25.479c-5.029-2.241-10.422-3.866-15.635-5.794c-18.403-7.386-21.057-4.254-19.109,13.883     c0.224,5.552,0.093,11.191,0.67,16.666C-262.855,411.515-254.575,419.825-236.645,406.798z" />
			<g
   id="g1521">
				<g
   id="g1522">
					<path
   id="path1523"
   d="M-250.028,392.459c3.176,0.015,3.037,0.201,3.683-2.676c0.712,2.274,1.424,4.543,2.136,6.818       C-246.149,395.218-248.087,393.84-250.028,392.459z" />
					<path
   id="path1524"
   fill="#3C4919"
   d="M-247.844,388.397c0.608,0.837,0.422,2.014-0.418,2.624       c-0.836,0.607-2.012,0.421-2.621-0.416c-0.61-0.84-0.716-3.008-0.855-4.368C-250.637,386.813-248.455,387.556-247.844,388.397z       " />
				</g>
				<g
   id="g1525">
					<path
   id="path1526"
   d="M-228.416,383.581c2.189,2.58,4.234,6.339-0.365,11.686c-2.166,2.685-6.615,3.815-11.1,7.29       c-4.687,3.188-7.137,7.071-10.359,8.301c-6.506,2.722-9.451-0.384-11.067-3.044c1.295,2.217,4.24,5.324,10.746,2.601       c3.222-1.23,5.675-5.109,10.359-8.301c4.487-3.472,8.934-4.606,11.1-7.29C-224.502,389.479-226.548,385.719-228.416,383.581z" />
					<path
   id="path1527"
   fill="#3A6673"
   d="M-229.024,382.743c2.189,2.58,4.234,6.339-0.363,11.689       c-2.167,2.683-6.614,3.817-11.101,7.289c-4.684,3.191-7.137,7.071-10.358,8.302c-6.508,2.719-9.453-0.387-11.068-3.045       c1.296,2.219,4.041,4.695,10.547,1.973c3.222-1.23,4.467-6.296,9.155-9.488c4.485-3.473,9.856-3.213,12.023-5.899       C-225.591,388.219-227.154,384.884-229.024,382.743z" />
				</g>
			</g>
		</g>
		<g
   id="g1528"
   transform="matrix(-0.809017,0.587785,-0.587785,-0.809017,865.9057,96.66981)">
			<path
   id="path1529"
   fill="#FFFFFF"
   stroke="#000000"
   stroke-width="0.125"
   d="M404.726,930.489     c18.42-13.384,12.29-23.254,7.291-25.48c-5.029-2.239-10.422-3.864-15.635-5.792c-18.403-7.389-21.055-4.254-19.109,13.883     c0.225,5.552,0.094,11.192,0.67,16.665C378.516,935.206,386.795,943.516,404.726,930.489z" />
			<g
   id="g1530">
				<g
   id="g1531">
					<path
   id="path1532"
   d="M391.344,916.149c3.176,0.015,3.038,0.202,3.681-2.674c0.714,2.271,1.427,4.542,2.139,6.814       C395.223,918.909,393.284,917.529,391.344,916.149z" />
					<path
   id="path1533"
   fill="#3C4919"
   d="M393.525,912.086c0.61,0.839,0.424,2.014-0.416,2.625       c-0.837,0.609-2.014,0.422-2.622-0.416c-0.61-0.84-0.716-3.006-0.853-4.368C390.733,910.504,392.915,911.248,393.525,912.086z" />
				</g>
				<g
   id="g1534">
					<path
   id="path1535"
   d="M412.954,907.269c2.191,2.58,4.235,6.341-0.366,11.688c-2.166,2.684-6.613,3.817-11.096,7.289       c-4.688,3.192-7.14,7.073-10.362,8.302c-6.506,2.721-9.451-0.384-11.068-3.044c1.296,2.218,4.24,5.324,10.747,2.603       c3.222-1.231,5.673-5.11,10.363-8.303c4.483-3.471,8.93-4.604,11.096-7.287C416.87,913.169,414.824,909.41,412.954,907.269z" />
					<path
   id="path1536"
   fill="#3A6673"
   d="M412.348,906.434c2.189,2.581,4.233,6.34-0.366,11.688       c-2.168,2.685-6.613,3.817-11.097,7.289c-4.688,3.191-7.139,7.069-10.362,8.301c-6.507,2.723-9.451-0.385-11.067-3.044       c1.296,2.218,4.041,4.695,10.548,1.973c3.222-1.229,4.466-6.297,9.156-9.487c4.483-3.473,9.854-3.214,12.022-5.897       C415.781,911.909,414.217,908.572,412.348,906.434z" />
				</g>
			</g>
		</g>
		<g
   id="g1537"
   transform="matrix(-0.809017,-0.587785,0.587785,-0.809017,643.7921,588.5748)">
			<path
   id="path1538"
   fill="#FFFFFF"
   stroke="#000000"
   stroke-width="0.125"
   d="M1102.488,484.125     c18.421-13.385,12.288-23.255,7.29-25.479c-5.028-2.238-10.42-3.864-15.632-5.794c-18.404-7.387-21.055-4.254-19.109,13.884     c0.223,5.553,0.092,11.192,0.669,16.666C1076.276,488.842,1084.556,497.152,1102.488,484.125z" />
			<g
   id="g1539">
				<g
   id="g1540">
					<path
   id="path1541"
   d="M1089.105,469.786c3.175,0.014,3.037,0.201,3.683-2.675c0.712,2.271,1.424,4.542,2.137,6.815       C1092.985,472.546,1091.045,471.165,1089.105,469.786z" />
					<path
   id="path1542"
   fill="#3C4919"
   d="M1091.287,465.723c0.61,0.839,0.423,2.014-0.415,2.624       c-0.839,0.608-2.014,0.422-2.624-0.417c-0.61-0.838-0.714-3.006-0.852-4.367       C1088.496,464.139,1090.679,464.884,1091.287,465.723z" />
				</g>
				<g
   id="g1543">
					<path
   id="path1544"
   d="M1110.715,460.907c2.191,2.58,4.234,6.34-0.365,11.687c-2.167,2.684-6.612,3.817-11.097,7.29       c-4.689,3.19-7.14,7.071-10.362,8.301c-6.506,2.721-9.452-0.385-11.068-3.043c1.297,2.218,4.241,5.323,10.748,2.602       c3.22-1.232,5.673-5.111,10.362-8.301c4.483-3.473,8.93-4.605,11.096-7.29C1114.629,466.805,1112.585,463.045,1110.715,460.907       z" />
					<path
   id="path1545"
   fill="#3A6673"
   d="M1110.109,460.071c2.19,2.58,4.233,6.34-0.365,11.688       c-2.167,2.683-6.613,3.816-11.098,7.289c-4.689,3.19-7.139,7.07-10.361,8.3c-6.507,2.722-9.451-0.384-11.068-3.042       c1.295,2.217,4.041,4.694,10.547,1.973c3.224-1.232,4.468-6.298,9.156-9.489c4.484-3.472,9.856-3.213,12.022-5.897       C1113.541,465.545,1111.979,462.21,1110.109,460.071z" />
				</g>
			</g>
		</g>
		<g
   id="g1546"
   transform="matrix(0.309017,-0.951057,0.951057,0.309017,108.7295,528.2566)">
			<path
   id="path1547"
   fill="#FFFFFF"
   stroke="#000000"
   stroke-width="0.125"
   d="M892.858-318.443     c18.421-13.384,12.288-23.256,7.291-25.478c-5.027-2.24-10.421-3.866-15.633-5.794c-18.402-7.386-21.056-4.256-19.109,13.884     c0.223,5.554,0.093,11.191,0.667,16.667C866.646-313.724,874.928-305.417,892.858-318.443z" />
			<g
   id="g1548">
				<g
   id="g1549">
					<path
   id="path1550"
   d="M879.476-332.782c3.176,0.016,3.037,0.204,3.682-2.674c0.713,2.271,1.425,4.543,2.137,6.815       C883.356-330.021,881.416-331.401,879.476-332.782z" />
					<path
   id="path1551"
   fill="#3C4919"
   d="M881.658-336.843c0.61,0.838,0.423,2.015-0.415,2.622       c-0.839,0.609-2.015,0.424-2.624-0.413c-0.609-0.84-0.714-3.008-0.852-4.37C878.866-338.425,881.048-337.681,881.658-336.843z" />
				</g>
				<g
   id="g1552">
					<path
   id="path1553"
   d="M901.087-341.659c2.19,2.579,4.234,6.339-0.364,11.686c-2.168,2.685-6.615,3.815-11.099,7.29       c-4.689,3.191-7.138,7.068-10.361,8.3c-6.506,2.721-9.451-0.384-11.067-3.043c1.295,2.218,4.24,5.323,10.747,2.603       c3.222-1.232,5.673-5.111,10.362-8.302c4.483-3.472,8.93-4.607,11.097-7.289C905-335.761,902.955-339.521,901.087-341.659z" />
					<path
   id="path1554"
   fill="#3A6673"
   d="M900.48-342.496c2.189,2.583,4.234,6.339-0.366,11.69       c-2.167,2.684-6.613,3.814-11.098,7.289c-4.689,3.191-7.139,7.07-10.361,8.298c-6.508,2.725-9.451-0.383-11.068-3.042       c1.297,2.217,4.041,4.695,10.547,1.974c3.223-1.232,4.468-6.299,9.156-9.49c4.484-3.473,9.856-3.214,12.022-5.897       C903.912-337.022,902.349-340.356,900.48-342.496z" />
				</g>
			</g>
		</g>
	</g>
</g>
<defs
   id="defs102">
	
	
		<inkscape:perspective
   id="perspective247"
   sodipodi:type="inkscape:persp3d"
   inkscape:vp_x="0 : 57 : 1"
   inkscape:vp_y="0 : 1000 : 0"
   inkscape:vp_z="114 : 57 : 1"
   inkscape:persp3d-origin="57 : 38 : 1">
		</inkscape:perspective>
</defs>
<sodipodi:namedview
   id="base"
   inkscape:window-height="719"
   inkscape:window-width="645"
   inkscape:pageshadow="2"
   inkscape:pageopacity="0.0"
   guidetolerance="10.0"
   gridtolerance="10.0"
   objecttolerance="10.0"
   borderopacity="1.0"
   bordercolor="#666666"
   pagecolor="#ffffff"
   showgrid="false"
   inkscape:zoom="4.3333333"
   inkscape:cx="57"
   inkscape:cy="56.538462"
   inkscape:window-x="0"
   inkscape:window-y="25"
   inkscape:current-layer="Layer_1"
   inkscape:window-maximized="0">
	</sodipodi:namedview>
<g
   id="g106">
	<ellipse
   fill="#FFFFFF"
   cx="57.019"
   cy="51.192"
   rx="25.697"
   ry="26.831"
   id="ellipse108" />
	<ellipse
   fill="#FFFFFF"
   cx="28.776"
   cy="42.127"
   rx="7.898"
   ry="8.098"
   id="ellipse110" />
	<ellipse
   fill="#FFFFFF"
   cx="55.015"
   cy="21.46"
   rx="8.842"
   ry="7.493"
   id="ellipse112" />
	<ellipse
   fill="#FFFFFF"
   cx="83.66"
   cy="40.797"
   rx="8.251"
   ry="5.56"
   id="ellipse114" />
	<ellipse
   fill="#FFFFFF"
   cx="74.111"
   cy="75.484"
   rx="6.248"
   ry="6.164"
   id="ellipse116" />
	<ellipse
   fill="#FFFFFF"
   cx="40.044"
   cy="75.121"
   rx="7.544"
   ry="7.251"
   id="ellipse118" />
</g>
<g
   id="g238"
   transform="matrix(1.0229817,0,0,1.0517246,-0.57548269,-2.7157821)">
	<path
   id="path240"
   d="M 55.164,90.671 42.742,78.248 44.861,76.13 30.051,61.318 27.932,63.438 15.511,51.018 34.132,32.396 46.554,44.817 42.509,48.863 45.051,51.405 55.553,40.902 53.012,38.36 49.105,42.267 36.682,29.846 55.164,11.364 67.586,23.786 65.468,25.905 80.276,40.715 82.396,38.596 94.819,51.018 76.337,69.5 63.914,57.077 67.82,53.171 65.754,51.103 55.251,61.607 57.316,63.673 61.361,59.627 73.786,72.05 55.164,90.671 z"
   style="fill:#eed706;stroke:#6b2910" />
</g>
</svg>